<svg xml:space="preserve" style="enable-background:new 0 0 612 253.6;" viewBox="0 0 612 253.6" y="0px" x="0px" xmlns:xlink="http://www.w3.org/1999/xlink" xmlns="http://www.w3.org/2000/svg" id="Layer_1" version="1.1">
<path d="M149.1,64.2c0-0.1-0.1-0.3-0.3-0.3c0,0,0,0-0.1,0c-0.2,0-1.3-0.1-2.1-0.9c-0.7-0.7-1-1.6-1-3c0-0.2,0-0.3,0-0.4
	c0-0.1-0.1-0.3-0.3-0.3c-0.1,0-0.3,0.1-0.3,0.3c0,0.1,0,0.2,0,0.3c0,0.6-0.2,2.1-1,2.9c-0.4,0.4-1,0.7-1.7,0.7
	c-0.1,0-0.3,0.1-0.3,0.3c0,0.1,0.1,0.3,0.2,0.3c0.1,0,2.8,0.3,2.8,3.5c0,0.1,0.1,0.2,0.2,0.3c0,0,0,0,0,0c0.1,0,0.3-0.1,0.3-0.2
	c0-0.1,0.5-3.2,3-3.3c0,0,0.1,0,0.1,0C149,64.5,149.1,64.4,149.1,64.2z"></path>
<path d="M156.4,73.2c0-0.2-0.2-0.2-0.3-0.2c0,0,0,0-0.1,0c-0.2,0-1.3,0.2-2.3-0.4c-0.8-0.5-1.4-1.5-1.6-2.8c0-0.2-0.1-0.3-0.1-0.4
	c0-0.1-0.2-0.2-0.3-0.2c-0.1,0-0.2,0.2-0.2,0.3c0,0.1,0,0.2,0.1,0.3c0.1,0.6,0.2,2.1-0.4,3.2c-0.3,0.5-0.9,0.9-1.6,1
	c-0.1,0-0.2,0.2-0.2,0.3c0,0.1,0.2,0.3,0.3,0.2c0.1,0,2.9-0.3,3.6,3c0,0.1,0.1,0.2,0.3,0.2c0,0,0,0,0,0c0.1,0,0.3-0.1,0.2-0.3
	c0-0.1-0.1-3.4,2.4-4c0,0,0.1,0,0.1,0C156.3,73.5,156.4,73.4,156.4,73.2z"></path>
<g>
	<path d="M85,101.3c-0.1-0.2-0.1-0.5,0-0.7c0.2-0.5,0.4-1,0.7-1.5c0.1-0.3,0.2-0.6,0.4-0.9c0.3-0.7,0.6-1.4,1-2c0.5-1,1.1-2,1.5-3
		c0.2-0.6,0.5-1.2,0.7-1.8c0.2-0.5,0.5-1,0.7-1.5c0-0.1,0.1-0.1,0.1-0.1c0.6-0.6,1.2-1.1,1.8-1.6c0.1-0.1,0.2-0.2,0.2-0.4
		c0.1-0.4,0.1-0.9,0.2-1.3c0.1-0.4,0.1-0.4,0.5-0.3c0.1,0,0.3,0.1,0.4,0.1c0.2,0.1,0.2,0.1,0.1,0.3c0,0.1-0.1,0.1-0.1,0.2
		c-0.2,0.3-0.3,0.5-0.5,0.8c-0.1,0.1-0.1,0.3-0.2,0.4c-0.1,0.7-0.1,1.3,0,2c0,0.2,0,0.3,0,0.5c0,0.1,0,0.2-0.1,0.3
		c0,0-0.1,0.1-0.1,0.1c-0.4,1.1-0.8,2.3-1.2,3.4c-0.3,0.9-0.7,1.7-1.1,2.5c-0.3,0.6-0.6,1.3-0.9,2c-0.3,0.6-0.5,1.3-0.8,2
		c-0.2,0.4-0.4,0.7-0.7,1.1c0,0,0.1,0.1,0.1,0.1c0.1,0.2,0.1,0.4-0.1,0.5c-0.1,0.1-0.1,0.2-0.2,0.3c0,0,0,0.1,0,0.1
		c-0.2,0.3-0.4,0.6-0.6,0.8c0.1,0.5,0,1-0.2,1.5c-0.2,0.3-0.7,0.7-1.3,0.6c-0.4-0.1-0.8-0.2-1.2-0.3c-0.2,0-0.4-0.3-0.4-0.6
		c0-0.2,0-0.4,0.1-0.5c0.2-0.4,0.4-0.7,0.6-1c0.1-0.1,0.1-0.2,0-0.3c-0.1-0.2,0-0.5,0-0.7c0-0.1,0.1-0.1,0.1-0.2
		c0.1-0.1,0.1-0.2,0.1-0.3C84.7,101.7,84.8,101.5,85,101.3z M90.1,90.2c0,0.1-0.1,0.2-0.1,0.2c-0.1,0.4-0.3,0.8-0.4,1.1
		c-0.3,0.9-0.6,1.9-1.1,2.8c-0.4,0.8-0.8,1.5-1.2,2.3c-0.2,0.5-0.5,0.9-0.7,1.4c-0.3,0.7-0.6,1.3-0.9,2c-0.1,0.2-0.2,0.4-0.2,0.6
		c-0.1,0.2,0,0.3,0.2,0.4c0.2,0.1,0.4,0.1,0.6,0.2c0,0,0,0,0-0.1c0.3-0.8,0.7-1.6,1.1-2.5c0.4-0.8,0.8-1.7,1.2-2.5
		c0.4-0.8,0.7-1.7,1.1-2.5c0.4-0.9,0.8-1.8,1.2-2.7c0.1-0.1,0.1-0.3,0.2-0.5C90.7,90.7,90.4,90.5,90.1,90.2z M91.5,90.6
		c-0.1,0.2-0.1,0.3-0.1,0.4c-0.4,1-0.8,2-1.2,3c-0.2,0.5-0.4,0.9-0.6,1.4c-0.4,0.8-0.7,1.6-1.1,2.5c-0.5,1-0.9,2-1.4,3
		c-0.1,0.2-0.2,0.4-0.2,0.6c0.2,0.1,0.4,0,0.6-0.1c0.1-0.1,0.3-0.1,0.4-0.2c0,0,0,0,0,0c0.5-1.1,0.9-2.1,1.4-3.2
		c0.2-0.5,0.5-1,0.7-1.6c0.2-0.5,0.5-1,0.7-1.6c0.5-1.3,1-2.5,1.4-3.8c0,0,0-0.1,0-0.1C91.9,90.9,91.7,90.8,91.5,90.6z M84.4,104.8
		c0.3,0.1,0.5,0.1,0.8,0.2c0.2,0,0.4,0.1,0.6,0.1c0.3,0,0.6-0.2,0.6-0.5c0-0.2,0-0.3,0.1-0.5c0-0.1,0-0.1,0-0.2
		c-0.7,0.1-1.3,0.1-1.7-0.5C84.5,103.7,84.3,104.5,84.4,104.8z M92.3,88.3c-0.4,0.2-0.7,0.5-1,0.8c-0.3,0.3-0.6,0.6-0.9,0.8
		c0.2,0.3,0.5,0.3,0.7,0.2c0.1-0.1,0.2-0.1,0.3-0.2c0-0.1,0.1-0.1,0.2-0.1c0,0,0.1,0.1,0.1,0.1c0,0.1,0,0.2,0,0.3
		c0.1,0.2,0.2,0.3,0.4,0.2c0.1,0,0.1,0,0.2-0.1C92.3,89.8,92.3,89.1,92.3,88.3z M85.1,101.8c0.1,0.1,0.1,0.1,0.1,0.1
		c0,0,0.1,0.1,0.1,0.1c0.6,0.2,1.1,0.3,1.7,0.3c0.2,0,0.3,0,0.4-0.2c0-0.1-0.1-0.1-0.1-0.2c-0.3,0.1-0.6,0.1-0.9,0
		c-0.4-0.1-0.8-0.2-1.2-0.3C85.3,101.7,85.2,101.8,85.1,101.8z M86.2,103.6c-0.3-0.1-0.6-0.1-0.8-0.3c-0.2-0.2-0.5-0.3-0.7-0.5
		C84.7,103.4,85.6,103.8,86.2,103.6z M87,103c-0.6,0.2-1.2,0-1.8-0.3C85.8,103.3,86.7,103.3,87,103z M92.8,86.5c-0.1,0-0.1,0-0.2,0
		c0,0.1,0,0.1,0,0.2C92.8,86.5,92.8,86.5,92.8,86.5z"></path>
</g>
<g>
	<path d="M122.5,139.2c-0.3-0.1-0.6-0.2-0.8-0.3c-0.5-0.2-0.5-0.6-0.3-1c0.1-0.2,0.3-0.4,0.3-0.6c0-0.5-0.2-1-0.6-1.4
		c-0.3-0.3-0.6-0.5-0.9-0.7c-0.4-0.3-0.9-0.5-1.3-0.8c-0.6-0.4-1.1-0.8-1.6-1.3c-0.8-0.9-1.2-2-1.1-3.2c0-0.9,0.2-1.8,0.6-2.7
		c0.6-1.6,1.7-2.7,3.2-3.3c0.9-0.4,1.9-0.7,2.9-0.8c2-0.3,3.8,0.3,5.1,1.9c1.1,1.2,1.7,2.7,1.8,4.3c0,0.6-0.1,1.1-0.3,1.7
		c-0.2,0.5-0.5,1-0.8,1.4c-0.1,0.1-0.1,0.1-0.2,0.2c-0.6,0.6-0.9,1.4-1,2.2c0,0.2-0.1,0.4-0.2,0.7c0,0.1,0,0.3,0,0.3
		c0.2,0.2,0.4,0.3,0.6,0.5c0.2,0.3,0.2,0.6,0,0.9c-0.2,0.2-0.3,0.4-0.5,0.6c0.1,0.3,0.1,0.6-0.1,0.9c-0.1,0.1-0.1,0.2-0.2,0.4
		c-0.1,0.1,0,0.2,0,0.3c0.2,0.3,0.1,0.5,0,0.8c-0.3,0.6-0.7,1.1-1.4,1.3c-0.5,0.2-1.1,0.3-1.6,0.3c-0.2,0-0.3,0-0.5-0.1
		c-0.3-0.1-0.6-0.4-0.5-0.8c0-0.2-0.1-0.3-0.3-0.4c-0.3-0.1-0.3-0.4-0.3-0.7C122.5,139.6,122.5,139.4,122.5,139.2z M122.9,131.3
		c-0.1-0.1-0.2-0.2-0.2-0.3c-0.5-0.6-0.8-1.2-0.9-2c0-0.1,0-0.3,0-0.4c0.1-0.3,0.4-0.5,0.7-0.4c0.1,0,0.2,0.1,0.3,0.2
		c0.2,0.2,0.3,0.4,0.4,0.6c0.3,0.5,0.5,1.1,0.6,1.7c0,0.1,0,0.3,0.2,0.3c0.2,0,0.4,0.1,0.6,0c0-0.1,0-0.1,0-0.1
		c0.1-0.6,0.2-1.3,0.4-1.9c0.1-0.3,0.3-0.6,0.7-0.7c0.3-0.1,0.5,0,0.7,0.2c0.1,0.2,0.2,0.5,0.2,0.7c0,0.4-0.1,0.8-0.2,1.1
		c-0.2,0.5-0.5,1-1,1.2c-0.2,0.1-0.2,0.2-0.2,0.3c0,0.4,0.1,0.9,0.1,1.3c0.1,0.7,0.2,1.4,0.3,2c0,0.3,0.1,0.5,0.1,0.8
		c0.3-0.1,0.6-0.1,0.9-0.1c0.5,0,0.5-0.2,0.4-0.6c0-0.1-0.1-0.2-0.1-0.3c0-0.2-0.1-0.4,0-0.6c0.1-1,0.4-1.9,1-2.6
		c0.2-0.2,0.4-0.5,0.5-0.7c0.6-0.8,0.8-1.7,0.6-2.7c-0.1-0.4-0.2-0.9-0.4-1.3c-0.5-1.2-1.3-2.2-2.4-2.8c-0.9-0.5-1.8-0.6-2.8-0.5
		c-0.8,0.1-1.5,0.3-2.2,0.6c-1.7,0.6-2.9,1.7-3.5,3.4c-0.2,0.6-0.4,1.3-0.5,2c-0.1,1,0.2,1.9,0.9,2.7c0.5,0.6,1.2,1,1.9,1.4
		c0.5,0.3,1,0.6,1.5,1c0.5,0.4,0.9,1,1.1,1.6c0,0.1,0.1,0.2,0.1,0.3c0.3-0.1,0.6-0.2,0.9-0.3c0.1-0.4,0-0.8-0.1-1.2
		c-0.3-0.8-0.7-1.6-1.1-2.4c-0.1-0.2-0.3-0.5-0.6-0.5c-0.1,0-0.2-0.1-0.3-0.1c-0.8-0.4-1.5-1-2-1.8c-0.1-0.2-0.2-0.4-0.2-0.7
		c0-0.4,0.2-0.5,0.5-0.5c0.3,0,0.6,0.1,0.9,0.3c0.6,0.4,1,1,1.4,1.6c0.1,0.2,0.2,0.3,0.3,0.5C122.6,131.7,122.8,131.6,122.9,131.3z
		 M123.6,131.7c-0.2,0.4-0.5,0.7-0.9,0.9c0.1,0.1,0.1,0.2,0.1,0.3c0.6,1.1,1.2,2.2,1.3,3.5c0.3-0.1,0.6-0.2,1-0.3
		c-0.3-1.4-0.6-2.8-0.7-4.2C124.1,131.8,123.9,131.7,123.6,131.7z M127.4,136.5c-0.2-0.2-0.5-0.3-0.7-0.2c-0.5,0.2-1,0.4-1.5,0.6
		c-0.6,0.3-1.3,0.5-1.9,0.8c-0.4,0.1-0.7,0.2-1.2,0.3c0,0-0.1,0.1-0.1,0.2c0.5,0.3,1,0.2,1.5,0.2c1.3-0.2,2.5-0.7,3.6-1.5
		C127.3,136.7,127.3,136.6,127.4,136.5z M126.8,138c-1.2,0.8-2.4,1.2-3.8,1.2c-0.1,0.6,0.1,0.8,0.7,0.7c0,0,0,0,0.1,0
		c0.7-0.3,1.5-0.5,2.2-0.8C126.4,139,126.7,138.6,126.8,138z M123.7,140.6c0,0.3,0,0.4,0.3,0.4c0.3,0,0.6,0,1-0.1
		c0.7-0.1,1.2-0.5,1.7-1c0.1-0.1,0.2-0.3,0.1-0.5C125.8,140,124.8,140.3,123.7,140.6z M121.2,131.5c-0.4-0.5-0.7-1-1.3-1.3
		C120.1,130.6,120.6,131.2,121.2,131.5z M125.7,129.2c-0.3,0.3-0.5,1-0.4,1.3C125.6,130.1,125.7,129.7,125.7,129.2z"></path>
	<path d="M125,115.8c0.3,0.3,0.4,0.7,0.3,1.1c-0.3,1.1-0.6,2.2-0.9,3.3c-0.1,0.4-0.2,0.4-0.6,0.4c-0.3-0.1-0.5-0.3-0.4-0.6
		c0.3-1.1,0.6-2.3,0.9-3.4C124.4,116.2,124.7,115.9,125,115.8z"></path>
	<path d="M117.9,115.8c0.3,0.1,0.4,0.3,0.4,0.5c0.3,0.8,0.5,1.6,0.7,2.3c0.2,0.6,0.3,1.2,0.5,1.8c0,0.1,0,0.3,0.1,0.4
		c-0.1,0-0.2,0.1-0.3,0.1c-0.3,0.1-0.5,0-0.6-0.3c-0.3-1.1-0.8-2.3-0.9-3.5c0-0.4,0-0.7-0.1-1.1C117.8,116,117.9,115.9,117.9,115.8z"></path>
	<path d="M128.9,118c0,0.2,0,0.4-0.1,0.5c-0.2,0.6-0.4,1.2-0.8,1.7c-0.3,0.3-0.5,0.7-0.8,1.1c-0.1,0.1-0.2,0.2-0.4,0.2
		c-0.4,0-0.7-0.3-0.5-0.7c0-0.1,0.1-0.1,0.1-0.2c0.4-0.5,0.7-1,1.1-1.5c0.3-0.4,0.7-0.7,1-1C128.7,118.1,128.8,118.1,128.9,118z"></path>
	<path d="M117.2,123.2c-0.2,0-0.3,0.1-0.3,0.1c-0.3-0.1-0.7-0.1-1-0.2c-0.8-0.2-1.6-0.5-2.4-0.8c-0.1,0-0.1,0-0.2-0.1
		c-0.2-0.1-0.3-0.3-0.3-0.5c0.1-0.2,0.3-0.4,0.5-0.3c0.9,0.3,1.8,0.5,2.7,0.9C116.6,122.5,116.9,122.8,117.2,123.2z"></path>
</g>
<g>
	<path d="M531.9,98.4c-0.1-0.2-0.2-0.3-0.3-0.5c-0.1-0.3,0-0.5,0.2-0.6c0.1,0,0.3-0.1,0.4-0.2c0.2-0.3,0.3-0.6,0.3-0.9
		c0-0.2-0.1-0.5-0.1-0.7c-0.1-0.3-0.2-0.6-0.3-0.9c-0.2-0.4-0.3-0.8-0.3-1.3c-0.1-0.8,0.2-1.4,0.7-2c0.4-0.4,0.8-0.8,1.3-1.1
		c0.9-0.5,1.9-0.7,2.9-0.4c0.6,0.2,1.2,0.4,1.7,0.7c1.1,0.7,1.7,1.6,1.8,2.9c0,1-0.2,2-0.8,2.8c-0.2,0.3-0.5,0.5-0.8,0.7
		c-0.3,0.2-0.6,0.3-1,0.4c-0.1,0-0.1,0-0.2,0c-0.5,0.1-1,0.3-1.3,0.7c-0.1,0.1-0.2,0.2-0.3,0.3c-0.1,0.1-0.1,0.1-0.2,0.1
		c0,0.2,0.1,0.3,0.1,0.5c0,0.2-0.1,0.4-0.4,0.4c-0.2,0-0.3,0-0.5,0.1c-0.1,0.2-0.2,0.3-0.4,0.4c-0.1,0-0.1,0.1-0.2,0.1
		c-0.1,0-0.1,0.1-0.1,0.2c0,0.2-0.2,0.3-0.3,0.4c-0.4,0.2-0.8,0.2-1.2,0.1c-0.3-0.1-0.6-0.3-0.9-0.5c-0.1-0.1-0.2-0.1-0.2-0.2
		c-0.1-0.2-0.1-0.4,0-0.6c0.1-0.1,0.1-0.2,0-0.3c-0.1-0.2,0-0.3,0.1-0.5C531.8,98.6,531.8,98.5,531.9,98.4z M535.2,94.6
		c0-0.1,0-0.2,0-0.2c0-0.5,0.1-0.9,0.3-1.3c0-0.1,0.1-0.2,0.2-0.2c0.2-0.1,0.4-0.1,0.5,0.1c0,0.1,0,0.1,0,0.2c0,0.1,0,0.3,0,0.4
		c-0.1,0.4-0.2,0.7-0.4,1.1c0,0.1-0.1,0.1,0,0.2c0.1,0.1,0.1,0.2,0.3,0.2c0,0,0,0,0.1-0.1c0.3-0.3,0.6-0.6,0.9-0.8
		c0.2-0.1,0.4-0.1,0.6-0.1c0.2,0.1,0.3,0.2,0.2,0.4c0,0.2-0.1,0.3-0.2,0.4c-0.2,0.2-0.3,0.3-0.5,0.5c-0.3,0.2-0.6,0.3-1,0.2
		c-0.1,0-0.2,0-0.2,0.1c-0.1,0.2-0.3,0.4-0.4,0.7c-0.2,0.4-0.4,0.7-0.7,1.1c-0.1,0.1-0.2,0.3-0.3,0.4c0.2,0.1,0.3,0.2,0.5,0.3
		c0.3,0.2,0.3,0.1,0.4-0.1c0-0.1,0-0.1,0.1-0.2c0.1-0.1,0.1-0.2,0.2-0.3c0.4-0.4,0.9-0.8,1.5-0.9c0.2,0,0.4-0.1,0.5-0.1
		c0.6-0.2,1.1-0.5,1.3-1.1c0.1-0.3,0.2-0.5,0.3-0.8c0.2-0.8,0.2-1.6-0.1-2.3c-0.2-0.6-0.6-1-1.2-1.3c-0.4-0.3-0.9-0.4-1.3-0.6
		c-1.1-0.4-2.1-0.3-3.1,0.3c-0.4,0.2-0.7,0.5-1,0.8c-0.5,0.5-0.7,1-0.6,1.7c0.1,0.5,0.2,0.9,0.4,1.4c0.1,0.3,0.2,0.7,0.3,1.1
		c0.1,0.4,0.1,0.8-0.1,1.2c0,0.1,0,0.1-0.1,0.2c0.2,0.1,0.4,0.2,0.5,0.2c0.2-0.2,0.3-0.4,0.4-0.6c0.2-0.5,0.3-1.1,0.4-1.6
		c0-0.2,0.1-0.3-0.1-0.4c0,0-0.1-0.1-0.1-0.2c-0.2-0.5-0.3-1.1-0.3-1.7c0-0.2,0.1-0.3,0.2-0.4c0.1-0.2,0.3-0.2,0.5-0.1
		c0.2,0.1,0.3,0.3,0.3,0.5c0.1,0.4,0.1,0.9,0.1,1.4c0,0.1,0,0.2,0,0.4C534.9,94.8,535.1,94.7,535.2,94.6z M535.4,95.1
		c-0.3,0.1-0.5,0.2-0.8,0.1c0,0.1,0,0.1,0,0.2c-0.2,0.8-0.3,1.5-0.7,2.2c0.2,0.1,0.4,0.2,0.6,0.2c0.4-0.8,0.8-1.6,1.3-2.4
		C535.6,95.4,535.5,95.3,535.4,95.1z M535.4,99c0-0.2-0.1-0.3-0.3-0.4c-0.3-0.1-0.6-0.2-1-0.3c-0.4-0.1-0.8-0.2-1.2-0.4
		c-0.2-0.1-0.4-0.2-0.7-0.3c0,0-0.1,0-0.2,0.1c0.1,0.3,0.4,0.5,0.7,0.7c0.7,0.4,1.5,0.6,2.4,0.7C535.2,99,535.3,99,535.4,99z
		 M534.5,99.5c-0.9-0.1-1.7-0.4-2.3-0.9c-0.3,0.3-0.3,0.5,0,0.6c0,0,0,0,0,0c0.5,0.2,0.9,0.3,1.4,0.5
		C533.9,99.8,534.2,99.7,534.5,99.5z M532,99.6c-0.1,0.2-0.1,0.2,0,0.3c0.2,0.1,0.3,0.2,0.5,0.3c0.4,0.2,0.8,0.2,1.2,0.2
		c0.1,0,0.2-0.1,0.2-0.2C533.2,100.1,532.6,99.8,532,99.6z M534.3,94.1c0-0.4,0.1-0.8-0.1-1.2C534.1,93.2,534.1,93.7,534.3,94.1z
		 M537.4,94.7c-0.2,0-0.6,0.3-0.7,0.5C537,95.1,537.2,94.9,537.4,94.7z"></path>
	<path d="M542.3,87.9c0,0.3-0.1,0.5-0.3,0.6c-0.6,0.4-1.1,0.9-1.7,1.3c-0.2,0.1-0.3,0.1-0.4,0c-0.1-0.1-0.1-0.3,0.1-0.5
		c0.6-0.5,1.2-0.9,1.8-1.3C541.9,87.8,542.1,87.8,542.3,87.9z"></path>
	<path d="M538.9,85.1c0.1,0.2,0,0.3,0,0.4c-0.2,0.5-0.4,1-0.6,1.4c-0.1,0.4-0.3,0.7-0.5,1.1c0,0.1-0.1,0.2-0.1,0.2
		c-0.1,0-0.1,0-0.2-0.1c-0.2-0.1-0.2-0.2-0.2-0.4c0.3-0.7,0.5-1.4,0.9-2c0.1-0.2,0.3-0.4,0.4-0.5C538.7,85.2,538.8,85.1,538.9,85.1z"></path>
	<path d="M543.4,90.5c-0.1,0.1-0.2,0.2-0.2,0.2c-0.3,0.2-0.7,0.4-1.1,0.5c-0.3,0.1-0.5,0.1-0.8,0.2c-0.1,0-0.2,0-0.3,0
		c-0.2-0.2-0.2-0.4,0-0.6c0,0,0.1,0,0.1-0.1c0.4-0.1,0.8-0.2,1.1-0.3c0.3-0.1,0.6-0.1,0.9-0.1C543.3,90.5,543.3,90.5,543.4,90.5z"></path>
	<path d="M535.6,88.5c-0.1,0-0.2,0-0.2-0.1c-0.1-0.2-0.3-0.3-0.4-0.5c-0.3-0.4-0.6-0.9-0.9-1.3c0,0-0.1-0.1-0.1-0.1
		c-0.1-0.1,0-0.3,0.1-0.3c0.1-0.1,0.3-0.1,0.4,0.1c0.3,0.5,0.7,1,1,1.5C535.6,87.9,535.6,88.1,535.6,88.5z"></path>
</g>
<g>
	<path d="M507.5,119.9c0-0.1-0.1-0.2-0.1-0.4c-0.1-0.2-0.2-0.3-0.3-0.5c-0.1-0.2-0.3-0.5-0.4-0.7c-2.3-4.7-4.6-9.4-6.9-14.1
		c-0.8-1.6-1.6-3.2-2.3-4.9l-0.8-1.7c-0.3-0.7-0.6-1.3-0.9-2c-0.2-0.4-0.4-0.7-0.7-0.8c-0.4-0.1-0.7,0.1-1,0.3
		c-0.1,0-0.1,0.1-0.2,0.1c-0.4,0.3-0.5,0.8-0.3,1.2c0.1,0.2,0.2,0.4,0.3,0.7l1.1,2.2c0.7,1.5,1.4,3,2.1,4.4c0.9,1.8,1.8,3.6,2.7,5.5
		c1.1,2.3,2.3,4.6,3.4,6.9c0.2,0.4,0.4,0.8,0.6,1.2c0.6,1.1,1.1,2.2,1.5,3.4c0.1,0.3,0.3,0.5,0.5,0.6c0,0,0.1,0,0.1,0
		c0.2,0,0.4,0,0.6-0.1c0.3-0.1,0.5-0.3,0.8-0.5c0.1-0.1,0.2-0.2,0.2-0.3l0.2-0.3L507.5,119.9z M498,103.7l-0.1-0.2l0.2-0.1l0,0
		l0.1,0.2L498,103.7z"></path>
	<path d="M502.3,92.1c0-0.1,0-0.2-0.1-0.2c0,0,0,0,0,0c-0.1,0-0.6-0.2-1-0.7c-0.3-0.4-0.3-1-0.1-1.6c0-0.1,0-0.2,0-0.2
		c0-0.1,0-0.1-0.1-0.2c-0.1,0-0.1,0-0.2,0.1c0,0.1,0,0.1,0,0.2c-0.1,0.3-0.3,1-0.9,1.3c-0.3,0.2-0.6,0.2-0.9,0.1
		c-0.1,0-0.1,0-0.2,0.1c0,0.1,0,0.1,0.1,0.2c0.1,0,1.4,0.5,1,2.1c0,0.1,0,0.1,0.1,0.2c0,0,0,0,0,0c0.1,0,0.1,0,0.2-0.1
		c0-0.1,0.7-1.6,1.9-1.3c0,0,0,0,0,0C502.2,92.2,502.3,92.2,502.3,92.1z"></path>
	<path d="M479.5,97.3c0-0.1,0-0.1-0.1-0.1c0,0,0,0,0,0c-0.1,0-0.5-0.1-0.8-0.5c-0.2-0.3-0.2-0.8-0.1-1.3c0-0.1,0-0.1,0-0.1
		c0-0.1,0-0.1-0.1-0.1c-0.1,0-0.1,0-0.1,0.1c0,0,0,0.1,0,0.1c-0.1,0.2-0.3,0.8-0.7,1.1c-0.2,0.1-0.5,0.2-0.7,0.1
		c-0.1,0-0.1,0-0.1,0.1c0,0.1,0,0.1,0.1,0.1c0,0,1.1,0.4,0.8,1.7c0,0.1,0,0.1,0.1,0.1c0,0,0,0,0,0c0.1,0,0.1,0,0.1-0.1
		c0-0.1,0.5-1.2,1.5-1c0,0,0,0,0,0C479.5,97.4,479.5,97.4,479.5,97.3z"></path>
	<path d="M507.4,98.9C507.4,98.9,507.4,98.9,507.4,98.9C507.4,98.8,507.4,98.8,507.4,98.9C507.4,98.8,507.4,98.8,507.4,98.9
		C507.4,98.8,507.3,98.8,507.4,98.9C507.3,98.8,507.3,98.8,507.4,98.9c-0.1-0.1-0.1-0.1-0.1-0.1c0,0,0,0,0,0c0,0,0,0,0,0
		c0,0,0,0,0,0c0,0,0,0,0,0c0,0,0,0,0,0c0,0,0,0-0.1,0c0,0,0,0,0,0c0,0,0,0,0,0c0,0,0,0,0,0c0,0,0,0-0.1,0c0,0,0,0,0,0c0,0,0,0-0.1,0
		c0,0,0,0,0,0c0,0,0,0-0.1,0c0,0,0,0-0.1,0c0,0,0,0-0.1,0c0,0,0,0,0,0c0,0,0,0,0,0c0,0,0,0,0,0c0,0,0,0,0,0c0,0,0,0,0,0c0,0,0,0,0,0
		c0,0,0,0,0,0c0,0,0,0,0,0c0,0,0,0,0,0c0,0,0,0,0,0c0,0,0,0,0,0c0,0,0,0,0,0c0,0,0,0,0,0c0,0,0,0-0.1,0c0,0,0,0,0,0c0,0,0,0,0,0
		c0,0,0,0,0,0c0,0,0,0,0,0c0,0,0,0,0,0c0,0,0,0,0-0.1c0,0,0,0,0,0c0,0,0,0,0,0c0,0,0,0,0,0c0,0,0,0,0,0c0,0,0,0,0,0c0,0,0,0,0,0
		c0,0,0,0,0,0c0,0,0,0,0,0c0,0,0,0,0,0c0,0,0,0,0,0c0,0,0,0,0,0c0,0,0,0,0-0.1c0,0,0,0,0,0c0,0,0,0,0-0.1c0,0,0,0,0-0.1
		c0,0,0,0,0-0.1c0,0,0,0,0,0c0,0,0,0,0,0c0,0,0,0,0-0.1c0,0,0,0,0,0c0,0,0,0,0-0.1c0,0,0-0.1,0-0.1c0,0,0-0.1,0-0.1c0,0,0,0,0,0
		c0,0,0,0,0,0c0,0,0,0,0-0.1c0,0,0,0,0-0.1c0,0,0-0.1,0-0.1c0,0,0,0,0-0.1c0,0,0-0.1,0-0.1c0,0,0-0.1,0-0.1c0,0,0-0.1,0-0.1
		c0,0,0-0.1,0-0.1c0-0.1,0-0.2,0-0.3c0,0,0,0,0,0c0,0,0,0,0,0c0,0,0,0,0,0c0,0,0,0-0.1,0c0,0,0,0,0,0c0,0,0,0,0,0c0,0,0,0,0,0
		c0,0,0,0,0,0c0,0,0,0,0,0c0,0,0,0,0,0c0,0,0,0,0,0c0,0,0,0,0,0c0,0,0,0,0,0c0,0,0,0,0,0c0,0,0,0,0,0c0,0,0,0,0,0c0,0,0,0,0,0
		c0,0,0,0,0,0c0,0,0,0,0,0c0,0,0,0,0,0c0,0,0,0,0,0c0,0,0,0,0,0c0,0,0,0,0,0c0,0,0,0,0,0c0,0,0,0,0,0c0,0,0,0,0,0c0,0,0,0,0,0
		c0,0,0,0,0,0c0,0,0,0,0,0c0,0,0,0,0,0c0,0,0,0,0,0c0,0,0,0,0,0.1c0,0,0,0.1,0,0.1c0,0,0,0,0,0c0,0,0,0,0,0c0,0,0,0,0,0
		c0,0,0,0,0,0.1c0,0,0,0,0,0c0,0,0,0,0,0c0,0,0,0.1,0,0.1c0,0,0,0,0,0c0,0,0,0,0,0c0,0,0,0,0,0c0,0,0,0,0,0c0,0,0,0,0,0c0,0,0,0,0,0
		c0,0,0,0,0,0c0,0,0,0,0,0c0,0,0,0,0,0c0,0,0,0,0,0c0,0,0,0,0,0c0,0,0,0,0,0c0,0,0,0,0,0c0,0,0,0,0,0c0,0,0,0,0,0c0,0,0,0,0,0
		c0,0,0,0,0,0c0,0,0,0.1,0,0.1c0,0,0,0,0,0c0,0,0,0,0,0c0,0,0,0,0,0c0,0,0,0,0,0c0,0,0,0,0,0c0,0,0,0,0,0c0,0,0,0,0,0c0,0,0,0,0,0
		c0,0,0,0,0,0c0,0,0,0,0,0c0,0,0,0,0,0c0,0,0,0,0,0c0,0,0,0,0,0c0,0,0,0,0,0c0,0,0,0,0,0c0,0,0,0,0,0c0,0,0,0,0,0c0,0,0,0,0,0
		c0,0,0,0,0,0c0,0,0,0,0,0c0,0,0,0,0,0.1c0,0,0,0,0,0c0,0,0,0,0,0c0,0,0,0,0,0c0,0,0,0,0,0c0,0-0.1,0-0.1,0.1c0,0,0,0,0,0
		c0,0,0,0-0.1,0c0,0,0,0,0,0c0,0,0,0,0,0c0,0,0,0,0,0c0,0,0,0,0,0c0,0,0,0,0,0c0,0,0,0,0,0c0,0,0,0-0.1,0c0,0,0,0-0.1,0c0,0,0,0,0,0
		c0,0,0,0-0.1,0c0,0-0.1,0-0.1,0c0,0-0.1,0-0.1,0c-0.1,0-0.1,0-0.2,0c0,0-0.1,0-0.1,0c0,0,0,0-0.1,0c0,0,0,0,0,0c0,0,0,0-0.1,0l0,0
		c0,0,0,0,0,0c0,0,0,0,0,0c0,0,0,0,0,0c0,0,0,0,0,0c0,0,0,0,0,0c0,0,0,0,0,0c0,0,0,0-0.1,0c0,0,0,0,0,0c0,0-0.1,0-0.1,0c0,0,0,0,0,0
		c0,0,0,0,0,0c0,0,0,0,0,0c0,0,0,0,0,0c0,0,0,0,0,0c0,0,0,0,0,0c0,0,0,0,0,0c0,0,0,0,0,0c0,0,0,0,0,0c0,0,0,0,0.1,0c0,0,0.1,0,0.1,0
		c0,0,0.1,0,0.1,0c0,0,0.1,0,0.1,0c0,0,0,0,0.1,0c0,0,0,0,0,0c0,0,0.1,0,0.1,0c0,0,0,0,0,0c0,0,0,0,0,0c0,0,0,0,0,0c0,0,0,0,0,0
		c0,0,0,0,0,0c0,0,0,0,0,0c0,0,0,0,0,0c0,0,0.1,0,0.1,0c0,0,0.1,0,0.1,0c0,0,0.1,0,0.1,0c0,0,0,0,0,0c0,0,0,0,0,0c0,0,0,0,0,0
		c0,0,0.1,0,0.1,0.1c0,0,0,0,0,0c0,0,0,0,0,0c0,0,0,0,0,0c0,0,0.1,0.1,0.1,0.1c0,0,0,0,0,0c0,0,0,0,0,0c0,0,0,0,0,0c0,0,0,0,0,0
		c0,0,0,0,0,0c0,0,0,0,0,0c0,0,0,0,0,0c0,0,0,0,0,0c0,0,0,0,0,0c0,0,0,0,0,0c0,0,0,0,0,0c0,0,0,0,0,0c0,0,0,0,0,0c0,0,0,0,0,0
		c0,0,0,0,0,0c0,0,0,0,0,0c0,0,0,0,0,0c0,0,0,0,0,0c0,0,0,0,0,0c0,0,0,0,0,0c0,0,0,0,0,0c0,0,0,0,0,0c0,0,0,0,0,0c0,0,0,0,0,0
		c0,0,0,0,0,0.1c0,0,0,0,0,0c0,0,0,0,0,0c0,0,0,0,0,0c0,0,0,0,0,0c0,0,0,0,0,0c0,0,0,0,0,0.1c0,0,0,0,0,0c0,0,0,0,0,0c0,0,0,0,0,0.1
		c0,0,0,0,0,0c0,0,0,0,0,0c0,0,0,0,0,0c0,0,0,0,0,0c0,0,0,0,0,0c0,0,0,0,0,0c0,0,0,0,0,0c0,0,0,0,0,0c0,0,0,0,0,0c0,0,0,0,0,0
		c0,0,0,0,0,0c0,0,0,0,0,0c0,0,0,0,0,0c0,0,0,0,0,0c0,0,0,0,0,0c0,0,0,0,0,0c0,0,0,0,0,0.1c0,0,0,0,0,0c0,0,0,0,0,0c0,0,0,0.1,0,0.1
		c0,0,0,0,0,0c0,0,0,0,0,0c0,0,0,0,0,0c0,0,0,0,0,0c0,0,0,0,0,0c0,0,0,0,0,0.1c0,0,0,0,0,0c0,0,0,0,0,0c0,0,0,0,0,0c0,0,0,0,0,0
		c0,0,0,0,0,0c0,0,0,0,0,0c0,0,0,0,0,0c0,0,0,0,0,0c0,0,0,0,0,0c0,0,0,0,0,0c0,0,0,0,0,0c0,0,0,0,0,0c0,0,0,0,0,0c0,0,0,0,0,0.1
		c0,0,0,0,0,0c0,0,0,0,0,0c0,0,0,0,0,0c0,0,0,0,0,0c0,0,0,0,0,0c0,0,0,0,0,0c0,0,0,0,0,0c0,0,0,0,0,0c0,0,0,0,0,0c0,0,0,0,0,0
		c0,0,0,0,0,0c0,0,0,0,0,0c0,0,0,0,0,0c0,0,0,0,0,0c0,0,0,0,0,0c0,0,0,0,0,0c0,0,0,0,0,0c0,0,0,0,0,0c0,0,0,0,0,0c0,0,0,0,0,0
		c0,0,0,0,0,0c0,0,0,0,0,0c0,0,0-0.1,0-0.1c0,0,0-0.1,0-0.1c0,0,0,0,0,0c0,0,0,0,0,0c0,0,0-0.1,0-0.1c0,0,0-0.1,0-0.1c0,0,0,0,0,0
		c0,0,0,0,0,0c0,0,0,0,0-0.1c0,0,0,0,0,0c0,0,0,0,0,0c0,0,0,0,0,0c0,0,0,0,0,0c0,0,0,0,0,0c0,0,0,0,0,0c0,0,0,0,0,0c0,0,0,0,0,0
		c0,0,0-0.1,0-0.1c0,0,0,0,0,0c0,0,0,0,0,0c0,0,0,0,0-0.1c0,0,0,0,0,0c0,0,0,0,0,0c0,0,0,0,0,0c0,0,0,0,0,0c0,0,0,0,0,0c0,0,0,0,0,0
		c0,0,0,0,0,0c0,0,0,0,0,0c0,0,0,0,0-0.1c0,0,0,0,0,0c0,0,0,0,0,0c0,0,0,0,0,0c0,0,0,0,0,0c0,0,0,0,0,0c0,0,0,0,0,0c0,0,0,0,0,0
		c0,0,0,0,0,0c0,0,0,0,0,0c0,0,0,0,0,0c0,0,0,0,0,0c0,0,0,0,0,0c0,0,0,0,0,0c0,0,0,0,0,0c0,0,0,0,0,0c0,0,0,0,0,0c0,0,0,0,0,0
		c0,0,0,0,0,0c0,0,0,0,0,0c0,0,0,0,0,0c0,0,0,0,0,0c0,0,0,0,0,0c0,0,0-0.1,0.1-0.1c0,0,0,0,0,0c0,0,0,0,0,0c0,0,0,0,0.1-0.1
		c0,0,0,0,0,0c0,0,0,0,0,0c0,0,0,0,0,0c0,0,0.1,0,0.1-0.1c0,0,0,0,0,0c0,0,0.1,0,0.1-0.1c0,0,0,0,0,0c0,0,0.1,0,0.1,0c0,0,0,0,0,0
		c0,0,0.1,0,0.1,0c0,0,0.1,0,0.1,0c0,0,0,0,0.1,0c0,0,0.1,0,0.1,0c0,0,0,0,0,0c0,0,0,0,0.1,0c0,0,0.1,0,0.1,0c0,0,0.1,0,0.1,0
		c0,0,0,0,0.1,0c0,0,0.1,0,0.1,0C507.2,99,507.3,99,507.4,98.9C507.3,99,507.3,99,507.4,98.9C507.4,99,507.4,98.9,507.4,98.9
		C507.4,98.9,507.4,98.9,507.4,98.9C507.4,98.9,507.4,98.9,507.4,98.9z M506.5,98.7C506.4,98.7,506.4,98.6,506.5,98.7
		C506.4,98.6,506.4,98.6,506.5,98.7C506.4,98.6,506.5,98.6,506.5,98.7z M506.2,98.5C506.2,98.5,506.2,98.5,506.2,98.5
		C506.2,98.5,506.2,98.5,506.2,98.5C506.2,98.5,506.2,98.5,506.2,98.5C506.2,98.5,506.2,98.5,506.2,98.5z M505.7,97.5
		C505.7,97.5,505.7,97.5,505.7,97.5C505.7,97.5,505.7,97.5,505.7,97.5C505.7,97.5,505.7,97.5,505.7,97.5
		C505.7,97.5,505.7,97.5,505.7,97.5z M505.7,97.5C505.7,97.5,505.7,97.5,505.7,97.5C505.7,97.5,505.7,97.5,505.7,97.5
		C505.7,97.5,505.7,97.5,505.7,97.5C505.7,97.5,505.7,97.5,505.7,97.5z M505.7,97.4C505.7,97.4,505.7,97.4,505.7,97.4
		C505.7,97.4,505.7,97.4,505.7,97.4z M505.7,96.4C505.7,96.4,505.7,96.5,505.7,96.4C505.7,96.5,505.7,96.5,505.7,96.4
		C505.7,96.5,505.7,96.5,505.7,96.4C505.7,96.4,505.7,96.4,505.7,96.4z M505.7,96.5C505.7,96.5,505.7,96.5,505.7,96.5
		C505.6,96.5,505.6,96.5,505.7,96.5C505.6,96.5,505.6,96.5,505.7,96.5C505.6,96.5,505.7,96.5,505.7,96.5z M505.7,96.4
		C505.7,96.4,505.7,96.4,505.7,96.4C505.7,96.4,505.7,96.4,505.7,96.4z M505.6,96.5C505.6,96.5,505.6,96.6,505.6,96.5
		C505.6,96.6,505.6,96.6,505.6,96.5C505.6,96.6,505.6,96.6,505.6,96.5C505.6,96.5,505.6,96.5,505.6,96.5z M505.6,96.6
		C505.6,96.6,505.6,96.6,505.6,96.6C505.6,96.6,505.6,96.6,505.6,96.6C505.6,96.6,505.6,96.6,505.6,96.6
		C505.6,96.6,505.6,96.6,505.6,96.6z M505.6,96.7C505.6,96.7,505.6,96.7,505.6,96.7C505.6,96.7,505.6,96.7,505.6,96.7
		C505.6,96.7,505.6,96.7,505.6,96.7C505.6,96.7,505.6,96.7,505.6,96.7z M505.6,96.7C505.6,96.7,505.6,96.7,505.6,96.7
		C505.6,96.7,505.6,96.7,505.6,96.7C505.6,96.7,505.6,96.7,505.6,96.7C505.6,96.7,505.6,96.7,505.6,96.7z M505.6,96.7
		C505.6,96.7,505.6,96.7,505.6,96.7C505.6,96.7,505.6,96.7,505.6,96.7C505.6,96.7,505.6,96.7,505.6,96.7
		C505.6,96.7,505.6,96.7,505.6,96.7z M505.6,96.7C505.6,96.7,505.6,96.7,505.6,96.7C505.6,96.7,505.6,96.7,505.6,96.7
		C505.6,96.7,505.6,96.7,505.6,96.7C505.6,96.7,505.6,96.7,505.6,96.7z M505.5,96.9C505.5,96.9,505.5,96.9,505.5,96.9
		C505.5,96.9,505.5,96.9,505.5,96.9C505.5,96.9,505.5,96.9,505.5,96.9z M505.5,97C505.5,97,505.5,97,505.5,97
		C505.5,97,505.5,97,505.5,97C505.5,97,505.5,97,505.5,97C505.5,97,505.5,97,505.5,97z M505.5,97.1
		C505.5,97.1,505.5,97.1,505.5,97.1C505.5,97.1,505.5,97.1,505.5,97.1C505.5,97.1,505.5,97.1,505.5,97.1z M505.5,97.1
		C505.5,97.1,505.5,97.1,505.5,97.1C505.5,97.1,505.5,97.1,505.5,97.1C505.5,97.1,505.5,97.1,505.5,97.1
		C505.5,97.1,505.5,97.1,505.5,97.1z M505.5,97.1C505.5,97.1,505.5,97.1,505.5,97.1C505.4,97.1,505.4,97.1,505.5,97.1
		C505.4,97.1,505.5,97.1,505.5,97.1C505.5,97.1,505.5,97.1,505.5,97.1z M505.5,97C505.5,97,505.5,97,505.5,97
		C505.5,97,505.5,97,505.5,97C505.5,97,505.5,97,505.5,97C505.5,97,505.5,97,505.5,97z M505.4,97C505.5,97,505.5,97,505.4,97
		C505.5,97,505.5,97,505.4,97z M505.4,97.1C505.4,97.1,505.4,97.1,505.4,97.1C505.4,97.1,505.4,97.1,505.4,97.1
		C505.4,97.1,505.4,97.1,505.4,97.1z M505.4,97.1C505.4,97.1,505.4,97.1,505.4,97.1C505.5,97.1,505.5,97.1,505.4,97.1
		C505.4,97.1,505.4,97.1,505.4,97.1z M505.4,97.2C505.4,97.2,505.4,97.2,505.4,97.2C505.4,97.2,505.4,97.2,505.4,97.2
		C505.4,97.2,505.4,97.2,505.4,97.2C505.4,97.2,505.4,97.2,505.4,97.2z M505.4,97.2C505.4,97.2,505.4,97.2,505.4,97.2
		C505.4,97.2,505.4,97.2,505.4,97.2C505.4,97.2,505.4,97.2,505.4,97.2C505.4,97.2,505.4,97.2,505.4,97.2z M505.4,97.2
		C505.4,97.2,505.4,97.2,505.4,97.2C505.4,97.2,505.4,97.2,505.4,97.2z M505.4,97.2C505.4,97.2,505.4,97.2,505.4,97.2
		C505.4,97.2,505.4,97.2,505.4,97.2C505.4,97.2,505.4,97.2,505.4,97.2C505.4,97.2,505.4,97.2,505.4,97.2z M505.4,97.4
		C505.4,97.4,505.4,97.4,505.4,97.4C505.4,97.4,505.4,97.4,505.4,97.4C505.4,97.4,505.4,97.4,505.4,97.4
		C505.4,97.4,505.4,97.4,505.4,97.4C505.4,97.4,505.4,97.4,505.4,97.4z M505.2,97.7C505.2,97.7,505.2,97.7,505.2,97.7
		C505.2,97.7,505.2,97.7,505.2,97.7C505.2,97.7,505.2,97.7,505.2,97.7C505.2,97.7,505.2,97.7,505.2,97.7z M504.2,98.5
		C504.2,98.5,504.2,98.5,504.2,98.5C504.2,98.5,504.2,98.5,504.2,98.5C504.2,98.5,504.2,98.5,504.2,98.5
		C504.2,98.5,504.2,98.5,504.2,98.5z M504.5,98.6C504.5,98.6,504.5,98.6,504.5,98.6C504.5,98.6,504.5,98.6,504.5,98.6
		C504.5,98.6,504.5,98.6,504.5,98.6C504.5,98.6,504.5,98.6,504.5,98.6z M504.7,98.7C504.7,98.7,504.7,98.7,504.7,98.7
		C504.7,98.7,504.7,98.7,504.7,98.7C504.7,98.7,504.7,98.7,504.7,98.7C504.7,98.7,504.7,98.7,504.7,98.7z M505,100
		C505,100,505,100,505,100C505,100,505,100,505,100C505,100,505,100,505,100C505,100,505,100,505,100z M505.5,99.7
		C505.5,99.7,505.5,99.7,505.5,99.7C505.5,99.7,505.5,99.7,505.5,99.7C505.5,99.7,505.5,99.7,505.5,99.7z M506.1,99
		C506.1,98.9,506.1,98.9,506.1,99C506.1,98.9,506.1,98.9,506.1,99C506.1,98.9,506.1,98.9,506.1,99C506.1,98.9,506.1,99,506.1,99z
		 M506.2,98.9C506.2,98.9,506.2,98.9,506.2,98.9C506.2,98.9,506.2,98.9,506.2,98.9z M506.2,98.9C506.2,98.9,506.2,98.9,506.2,98.9
		C506.2,98.9,506.2,98.9,506.2,98.9z M506.3,98.8C506.3,98.8,506.3,98.8,506.3,98.8C506.3,98.8,506.3,98.8,506.3,98.8
		C506.3,98.8,506.3,98.8,506.3,98.8C506.3,98.8,506.3,98.8,506.3,98.8z M506.6,98.8C506.6,98.8,506.6,98.8,506.6,98.8
		C506.6,98.7,506.6,98.8,506.6,98.8C506.5,98.8,506.5,98.8,506.6,98.8c-0.1,0-0.2,0-0.2,0c0,0,0,0,0,0c0,0,0,0-0.1,0c0,0,0,0,0,0
		c0,0,0,0,0,0c0,0,0,0,0,0c0,0,0,0,0,0c0,0,0,0,0,0c0,0,0,0,0,0c0,0,0,0,0,0c0,0,0,0,0,0c0,0,0,0,0,0c0,0,0,0,0,0c0,0,0,0-0.1,0
		c0,0,0,0,0,0c0,0,0,0,0,0c0,0,0,0,0,0c0,0,0,0,0,0c0,0,0,0,0,0c0,0,0,0,0,0c0,0,0,0,0,0c0,0,0,0,0,0c0,0,0,0,0,0c0,0,0,0,0,0
		c0,0,0,0,0,0c0,0,0,0,0,0c0,0,0,0,0,0c0,0,0,0,0,0c0,0,0,0,0,0c0,0,0,0,0,0c0,0,0,0,0,0c0,0,0,0,0,0c0,0,0,0,0,0c0,0,0,0,0,0
		c0,0,0,0,0,0.1c0,0,0,0,0,0c0,0,0,0,0,0c0,0,0,0,0,0c0,0,0,0,0,0c0,0,0,0,0,0c0,0,0,0,0,0c0,0,0,0,0,0c0,0,0,0,0,0c0,0,0,0,0,0
		c0,0,0,0,0,0c0,0,0,0,0,0c0,0,0,0,0,0c0,0,0,0,0,0c0,0,0,0,0,0c0,0,0,0,0,0c0,0,0,0,0,0c0,0,0,0,0,0c0,0,0,0,0,0c0,0,0,0,0,0
		c0,0,0,0,0,0c0,0,0,0,0,0c0,0,0,0,0,0c0,0,0,0,0,0c0,0,0,0,0,0c0,0,0,0.1,0,0.1c0,0,0,0,0,0c0,0,0,0,0,0.1c0,0,0,0,0,0.1
		c0,0,0-0.1,0-0.1c0,0,0,0,0,0c0,0,0-0.1,0-0.1c0,0,0-0.1,0-0.1c0,0,0,0,0-0.1c0,0,0,0,0,0c0,0,0-0.1,0-0.1c0,0,0,0,0-0.1
		c0,0,0-0.1,0-0.1c0,0,0,0,0-0.1c0,0,0,0,0,0c0,0,0,0,0,0c0,0,0,0,0,0c0,0,0,0,0,0c0,0,0,0,0,0c0,0,0,0,0,0c0,0,0,0,0-0.1
		c0,0,0,0,0,0c0,0,0-0.1,0-0.1c0,0,0,0,0,0c0,0,0-0.1,0-0.1c0,0,0-0.1-0.1-0.1c0,0,0,0,0-0.1c0,0,0,0,0,0c0,0,0,0,0,0c0,0,0,0,0,0
		c0,0,0,0,0,0c0,0,0,0,0,0c0,0,0,0,0,0c0,0,0,0,0,0c0,0,0,0,0,0c0,0,0,0,0,0c0,0,0,0,0,0c0,0,0,0,0,0c0,0,0,0,0,0c0,0,0,0-0.1,0
		c0,0,0,0,0,0c0,0,0,0,0,0c0,0,0,0,0,0c0,0,0,0-0.1,0c0,0,0,0-0.1,0c0,0,0,0,0,0c0,0-0.1,0-0.1,0c0,0,0,0,0,0c0,0,0,0,0,0
		c0,0,0,0,0,0c0,0,0,0,0,0c0,0,0,0-0.1,0c0,0,0,0,0,0c0,0,0,0-0.1,0c0,0,0,0,0,0c0,0,0,0,0,0c0,0,0,0,0,0c0,0,0,0,0,0c0,0,0,0,0,0
		c0,0,0,0,0,0c0,0,0,0,0,0c0,0,0,0,0,0c0,0,0,0,0,0c0,0,0,0,0,0c0,0,0,0,0,0c0,0,0,0,0,0c0,0,0,0,0,0c0,0,0,0,0,0c0,0,0,0,0,0
		c0,0,0,0,0,0c0,0,0,0,0.1,0c0,0,0,0,0,0c0,0,0,0,0,0c0,0,0,0,0,0c0,0,0,0,0,0c0,0,0,0,0,0c0,0,0,0,0,0c0,0,0,0,0,0c0,0,0.1,0,0.1,0
		c0,0,0,0,0,0c0,0,0,0,0,0c0,0,0,0,0.1,0c0,0,0,0,0.1,0c0,0,0,0,0,0c0,0,0,0,0,0c0,0,0,0,0,0c0,0,0,0,0,0c0,0,0,0,0.1,0c0,0,0,0,0,0
		c0,0,0,0,0,0c0,0,0,0,0,0c0,0,0-0.1,0.1-0.1c0,0,0,0,0-0.1c0,0,0,0,0-0.1c0,0,0,0,0,0c0,0,0,0,0,0c0,0,0,0,0,0c0,0,0,0,0-0.1
		c0,0,0,0,0,0c0,0,0,0,0-0.1c0,0,0,0,0,0c0,0,0,0,0-0.1c0,0,0,0,0,0c0,0,0,0,0-0.1c0,0,0,0,0,0c0,0,0,0,0,0c0,0,0,0,0,0c0,0,0,0,0,0
		c0,0,0,0,0,0c0,0,0,0,0,0c0,0,0,0,0-0.1c0,0,0,0,0,0c0,0,0,0,0,0c0,0,0,0,0,0c0,0,0,0,0,0c0,0,0,0,0,0c0,0,0,0,0,0c0,0,0,0,0,0
		c0,0,0,0,0,0c0,0,0,0,0,0c0,0,0,0,0,0.1c0,0,0,0,0,0.1c0,0,0,0,0,0c0,0,0,0,0,0.1c0,0,0,0,0,0c0,0,0,0,0,0s0,0,0,0c0,0,0,0,0,0
		c0,0,0,0,0,0c0,0,0,0,0,0c0,0,0,0,0,0c0,0,0,0,0,0c0,0,0,0.1,0,0.1c0,0,0,0,0,0.1c0,0,0,0,0,0c0,0,0,0.1,0,0.1c0,0,0,0,0,0.1
		c0,0,0,0,0,0c0,0,0,0,0,0c0,0,0,0,0,0c0,0,0,0,0,0c0,0,0,0,0,0c0,0,0,0,0,0c0,0,0,0,0,0c0,0,0,0,0,0.1c0,0,0,0,0,0c0,0,0,0,0,0
		c0,0,0,0,0,0c0,0,0,0,0,0c0,0,0,0,0,0c0,0,0,0,0,0c0,0,0,0,0,0c0,0,0,0,0,0c0,0,0,0,0,0c0,0,0,0,0,0c0,0,0,0,0,0c0,0,0,0,0,0
		c0,0,0,0,0,0c0,0,0,0,0,0c0,0,0,0,0,0c0,0,0,0,0,0c0,0,0,0,0,0c0,0,0,0,0,0c0,0,0,0,0,0c0,0,0,0,0,0c0,0,0,0,0,0c0,0,0,0,0,0
		c0,0,0.1,0,0.1,0c0,0,0,0,0,0c0,0,0,0,0,0c0,0,0,0,0,0c0,0,0,0,0,0c0,0,0,0,0,0c0,0,0,0,0,0c0,0,0,0,0,0c0,0,0,0,0,0c0,0,0,0,0.1,0
		c0,0,0,0,0,0c0,0,0,0,0,0c0,0,0,0,0,0c0,0,0,0,0,0c0,0,0,0,0,0c0,0,0,0,0,0c0,0,0,0,0,0c0,0,0,0,0,0
		C506.5,98.7,506.5,98.7,506.6,98.8C506.6,98.7,506.6,98.7,506.6,98.8C506.6,98.7,506.6,98.7,506.6,98.8
		C506.6,98.7,506.6,98.7,506.6,98.8C506.6,98.7,506.6,98.7,506.6,98.8C506.6,98.7,506.6,98.7,506.6,98.8
		C506.6,98.7,506.6,98.7,506.6,98.8z"></path>
	<path d="M491.7,106.7C491.8,106.7,491.8,106.7,491.7,106.7C491.7,106.7,491.7,106.7,491.7,106.7c0-0.1,0-0.1,0-0.1c0,0,0,0,0,0
		c0,0,0,0,0,0c0,0,0,0,0,0c0,0,0,0,0,0c0,0,0,0-0.1,0c0,0,0,0,0,0c0,0,0,0,0,0c0,0-0.1,0-0.1,0c0,0-0.1,0-0.1,0c0,0,0,0-0.1,0
		c0,0,0,0-0.1,0c0,0,0,0-0.1,0c0,0-0.1,0-0.1-0.1c0,0,0,0,0,0c0,0-0.1,0-0.1,0c0,0,0,0,0,0c0,0-0.1,0-0.1-0.1c0,0-0.1,0-0.1,0
		c0,0-0.1,0-0.1,0c0,0,0,0-0.1,0c0,0-0.1,0-0.1,0c0,0,0,0,0,0c0,0-0.1,0-0.1,0c0,0,0,0,0,0c0,0-0.1,0-0.1,0c0,0-0.1,0-0.1-0.1
		c0,0,0,0-0.1,0c0,0-0.1,0-0.1,0c0,0-0.1,0-0.1-0.1c0,0,0,0-0.1,0c0,0-0.1,0-0.1-0.1c0,0,0,0,0,0c0,0-0.1-0.1-0.1-0.1c0,0,0,0,0,0
		c0,0,0,0,0,0c0,0,0,0-0.1-0.1c0,0,0,0,0-0.1c0,0,0,0,0,0c0,0,0-0.1-0.1-0.1c0,0,0,0,0,0c0,0,0,0,0,0c0,0,0,0,0-0.1c0,0,0,0,0,0
		c0,0,0,0,0,0c0,0,0,0,0,0c0,0,0,0,0,0c0,0,0,0,0-0.1c0,0,0,0,0-0.1c0,0,0,0,0,0c0,0,0,0,0,0c0,0-0.1-0.1,0-0.1c0,0,0,0,0,0
		c0,0,0-0.1,0-0.1c0,0,0-0.1,0-0.1c0,0,0-0.1,0-0.1c0,0,0,0,0,0c0,0,0,0,0,0c0,0,0-0.1,0-0.1c0,0,0,0,0,0c0,0,0-0.1,0-0.1
		c0-0.1,0-0.2,0-0.2c0-0.1,0-0.1,0-0.2c0,0,0,0,0,0c0,0,0-0.1,0-0.1c0,0,0-0.1,0-0.1c0,0,0-0.1,0-0.1c0-0.1,0-0.2,0-0.2
		c0,0,0-0.1,0-0.1c0-0.1,0-0.1,0-0.2c0-0.1,0-0.1,0-0.2c0-0.1,0-0.1,0-0.2c0-0.1,0-0.1,0-0.2c0-0.2,0-0.3,0-0.5c0,0,0,0,0,0
		c0,0,0,0,0-0.1c0,0,0,0,0,0c0,0-0.1,0-0.1,0c0,0,0,0-0.1,0c0,0,0,0,0,0c0,0,0,0,0,0c0,0,0,0,0,0c0,0,0,0,0,0c0,0,0,0,0,0
		c0,0,0,0,0,0.1c0,0,0,0,0,0c0,0,0,0,0,0.1c0,0,0,0,0,0c0,0,0,0,0,0.1c0,0,0,0,0,0.1c0,0,0,0,0,0c0,0,0,0,0,0c0,0,0,0,0,0
		c0,0,0,0,0,0c0,0,0,0.1,0,0.1c0,0,0,0,0,0c0,0,0,0,0,0c0,0,0,0,0,0c0,0,0,0,0,0c0,0,0,0,0,0c0,0,0,0,0,0c0,0,0,0.1,0,0.1
		c0,0,0,0,0,0c0,0,0,0,0,0c0,0,0,0,0,0c0,0,0,0.1,0,0.1c0,0.1,0,0.1,0,0.2c0,0,0,0,0,0c0,0,0,0,0,0c0,0,0,0,0,0c0,0,0,0.1,0,0.1
		c0,0,0,0.1,0,0.1c0,0,0,0,0,0c0,0,0,0.1,0,0.1c0,0,0,0,0,0.1c0,0,0,0,0,0c0,0,0,0,0,0.1c0,0,0,0,0,0c0,0,0,0,0,0c0,0,0,0,0,0
		c0,0,0,0,0,0c0,0,0,0,0,0c0,0,0,0,0,0.1c0,0,0,0,0,0c0,0,0,0,0,0c0,0,0,0,0,0c0,0,0,0,0,0c0,0,0,0,0,0.1c0,0,0,0,0,0.1c0,0,0,0,0,0
		c0,0,0,0,0,0.1c0,0,0,0.1-0.1,0.1c0,0,0,0,0,0c0,0,0,0,0,0.1c0,0,0,0,0,0.1c0,0,0,0.1,0,0.1c0,0,0,0,0,0.1c0,0,0,0,0,0c0,0,0,0,0,0
		c0,0,0,0.1,0,0.1c0,0,0,0.1,0,0.1c0,0,0,0,0,0c0,0,0,0,0,0c0,0,0,0,0,0.1c0,0,0,0,0,0.1c0,0,0,0,0,0c0,0,0,0,0,0c0,0,0,0,0,0
		c0,0-0.1,0-0.1,0c0,0,0,0,0,0.1c0,0,0,0,0,0c0,0,0,0,0,0c0,0-0.1,0.1-0.1,0.1c0,0,0,0,0,0c0,0,0,0-0.1,0.1c0,0,0,0-0.1,0.1
		c0,0,0,0-0.1,0.1c-0.1,0-0.1,0.1-0.2,0.1c0,0,0,0,0,0c0,0-0.1,0-0.1,0c0,0-0.1,0-0.1,0c0,0,0,0,0,0c0,0,0,0-0.1,0c0,0,0,0-0.1,0
		c0,0,0,0,0,0c0,0,0,0,0,0c0,0-0.1,0-0.1,0c0,0-0.1,0-0.1,0c0,0,0,0-0.1,0c0,0-0.1,0-0.1,0c-0.1,0-0.1,0-0.2,0c-0.1,0-0.1,0-0.2,0
		c-0.1,0-0.2,0-0.3,0c-0.1,0-0.1,0-0.2,0c0,0-0.1,0-0.1,0c0,0-0.1,0-0.1,0c0,0-0.1,0-0.1,0l-0.1,0c0,0-0.1,0-0.1,0c0,0,0,0-0.1,0
		c0,0,0,0-0.1,0c0,0-0.1,0-0.1,0c0,0,0,0,0,0c0,0,0,0-0.1,0c0,0-0.1,0-0.1,0c0,0,0,0,0,0c-0.1,0-0.1,0-0.2,0c0,0,0,0,0,0.1
		c0,0,0,0,0,0c0,0,0,0,0,0c0,0,0,0,0,0c0,0,0,0.1,0.1,0.1c0,0,0,0,0,0c0,0,0,0,0,0c0,0,0,0,0,0c0,0,0,0,0.1,0c0,0,0.1,0,0.1,0
		c0,0,0.1,0,0.1,0.1c0.1,0,0.1,0.1,0.2,0.1c0,0,0.1,0,0.1,0.1c0,0,0.1,0,0.1,0c0,0,0,0,0.1,0c0.1,0,0.2,0.1,0.2,0.1c0,0,0,0,0,0
		c0,0,0,0,0,0c0,0,0,0,0,0c0,0,0.1,0,0.1,0c0,0,0,0,0.1,0c0,0,0,0,0,0c0,0,0,0,0,0c0,0,0.1,0,0.1,0c0,0,0.1,0,0.1,0.1
		c0.1,0,0.1,0,0.2,0.1c0,0,0,0,0,0c0,0,0,0,0.1,0c0,0,0,0,0.1,0c0.1,0,0.1,0.1,0.2,0.1c0,0,0,0,0,0c0,0,0,0,0,0c0,0,0,0,0,0
		c0.1,0,0.1,0.1,0.2,0.1c0,0,0,0,0,0c0,0,0,0,0,0.1c0,0,0,0,0,0.1c0,0,0,0,0,0c0,0,0,0,0,0c0,0,0,0,0,0c0,0,0,0.1,0,0.1c0,0,0,0,0,0
		c0,0,0,0,0,0c0,0,0,0,0,0.1c0,0,0,0,0,0c0,0,0,0,0,0c0,0,0,0,0,0c0,0,0,0,0,0c0,0,0,0,0,0c0,0,0,0,0,0c0,0,0,0,0,0c0,0,0,0,0,0
		c0,0,0,0,0,0.1c0,0,0,0,0,0.1c0,0,0,0,0,0c0,0,0,0,0,0c0,0,0,0,0,0c0,0,0,0,0,0c0,0,0,0.1,0,0.1c0,0,0,0,0,0c0,0,0,0,0,0.1
		c0,0,0,0.1,0,0.1c0,0,0,0.1,0,0.1c0,0,0,0,0,0c0,0,0,0.1,0,0.1c0,0,0,0,0,0.1c0,0,0,0,0,0.1c0,0,0,0.1,0,0.1c0,0,0,0,0,0
		c0,0,0,0,0,0.1c0,0,0,0,0,0c0,0,0,0,0,0c0,0,0,0,0,0.1c0,0,0,0,0,0c0,0,0,0,0,0c0,0,0,0,0,0c0,0,0,0,0,0c0,0,0,0,0,0c0,0,0,0,0,0.1
		c0,0,0,0,0,0c0,0,0,0,0,0c0,0,0,0,0,0.1c0,0,0,0,0,0c0,0,0,0,0,0.1c0,0,0,0.1,0,0.1c0,0,0,0,0,0.1c0,0,0,0,0,0c0,0.1,0,0.1,0,0.2
		c0,0,0,0,0,0.1c0,0,0,0,0,0c0,0,0,0,0,0c0,0,0,0.1,0,0.1c0,0,0,0,0,0c0,0,0,0.1,0,0.1c0,0,0,0,0,0c0,0,0,0,0,0c0,0,0,0,0,0.1
		c0,0,0,0.1,0,0.1c0,0,0,0,0,0c0,0,0,0,0,0c0,0,0,0,0,0c0,0,0,0,0,0c0,0,0,0,0,0c0,0,0,0,0,0c0,0,0,0,0,0c0,0,0,0,0,0.1
		c0,0,0,0.1,0,0.1c0,0,0,0.1,0,0.1c0,0,0,0,0,0c0,0,0,0,0,0c0,0,0,0,0,0c0,0,0,0,0,0c0,0,0,0,0,0c0,0,0,0,0,0c0,0,0,0.1,0,0.1
		c0,0,0,0,0,0c0,0,0,0,0,0c0,0,0,0,0,0c0,0,0,0,0,0c0,0,0,0,0,0c0,0,0,0,0,0c0,0,0.1,0,0.1-0.1c0,0,0,0,0.1,0c0,0,0,0,0,0
		c0,0,0,0,0,0c0,0,0,0,0-0.1c0,0,0,0,0,0c0,0,0,0,0,0c0,0,0,0,0,0c0,0,0,0,0,0c0,0,0-0.1,0-0.1c0,0,0-0.1,0-0.1c0,0,0,0,0,0
		c0,0,0,0,0,0c0-0.1,0-0.1,0-0.2c0-0.1,0-0.1,0-0.2c0,0,0,0,0,0c0,0,0,0,0,0c0,0,0-0.1,0-0.1c0,0,0,0,0-0.1c0,0,0,0,0,0
		c0,0,0,0,0-0.1c0,0,0,0,0,0c0,0,0,0,0,0c0,0,0,0,0,0c0,0,0,0,0,0c0,0,0,0,0,0c0,0,0-0.1,0-0.1c0,0,0,0,0,0c0,0,0,0,0-0.1
		c0,0,0-0.1,0-0.1c0,0,0,0,0-0.1c0,0,0-0.1,0-0.1c0,0,0,0,0,0c0,0,0-0.1,0-0.1c0,0,0,0,0,0c0,0,0,0,0,0c0,0,0,0,0-0.1c0,0,0,0,0,0
		c0,0,0-0.1,0.1-0.1c0,0,0,0,0,0c0,0,0,0,0-0.1c0,0,0,0,0-0.1c0,0,0,0,0,0c0,0,0,0,0,0c0,0,0,0,0,0c0,0,0,0,0,0c0,0,0,0,0,0
		c0,0,0.1,0,0-0.1c0,0,0,0,0,0c0,0,0,0,0,0c0,0,0,0,0,0c0,0,0,0,0,0c0,0,0,0,0,0c0,0,0-0.1,0.1-0.1c0,0,0,0,0,0c0,0,0,0,0,0
		c0,0,0,0,0,0c0,0,0,0,0.1-0.1c0,0,0,0,0-0.1c0,0,0,0,0,0c0,0,0,0,0,0c0-0.1,0.1-0.1,0.1-0.2c0,0,0,0,0,0c0,0,0,0,0,0
		c0,0,0.1-0.1,0.1-0.1c0,0,0,0,0.1,0c0,0,0,0,0,0c0,0,0.1,0,0.1-0.1c0,0,0.1-0.1,0.2-0.1c0,0,0,0,0,0c0.1,0,0.2-0.1,0.2-0.1
		c0,0,0,0,0,0c0,0,0.1,0,0.1,0c0,0,0,0,0.1,0c0,0,0.1,0,0.1,0c0,0,0.1,0,0.1,0c0,0,0.1,0,0.1,0c0,0,0.1,0,0.1,0c0,0,0.1,0,0.1,0
		c0,0,0.1,0,0.1,0c0.1,0,0.1,0,0.2,0c0.1,0,0.1,0,0.2,0c0,0,0.1,0,0.1,0c0.1,0,0.1,0,0.2,0c0,0,0.1,0,0.1,0c0,0,0.1,0,0.1,0
		C491.7,106.9,491.7,106.8,491.7,106.7C491.8,106.8,491.8,106.8,491.7,106.7C491.8,106.8,491.8,106.8,491.7,106.7z M490.1,106.3
		C490.1,106.3,490.1,106.3,490.1,106.3C490.1,106.3,490.1,106.3,490.1,106.3C490.1,106.3,490.1,106.3,490.1,106.3z M489.7,106.1
		C489.7,106.1,489.7,106.1,489.7,106.1C489.7,106.1,489.7,106.1,489.7,106.1C489.7,106.1,489.7,106.1,489.7,106.1
		C489.7,106.1,489.7,106.1,489.7,106.1z M488.8,104.4C488.8,104.4,488.8,104.4,488.8,104.4C488.8,104.4,488.8,104.4,488.8,104.4
		C488.8,104.4,488.8,104.4,488.8,104.4C488.8,104.4,488.8,104.4,488.8,104.4z M488.8,104.3C488.8,104.3,488.8,104.3,488.8,104.3
		C488.8,104.3,488.8,104.3,488.8,104.3C488.8,104.3,488.8,104.3,488.8,104.3C488.8,104.3,488.8,104.3,488.8,104.3z M488.8,104.1
		C488.7,104.1,488.7,104.1,488.8,104.1C488.7,104.1,488.7,104.1,488.8,104.1z M488.7,102.5C488.7,102.5,488.8,102.5,488.7,102.5
		C488.7,102.5,488.7,102.5,488.7,102.5C488.7,102.5,488.7,102.5,488.7,102.5C488.7,102.5,488.7,102.5,488.7,102.5z M488.7,102.5
		C488.7,102.5,488.7,102.5,488.7,102.5C488.7,102.5,488.7,102.5,488.7,102.5C488.7,102.5,488.7,102.5,488.7,102.5
		C488.7,102.5,488.7,102.5,488.7,102.5z M488.7,102.4C488.7,102.4,488.7,102.4,488.7,102.4C488.7,102.4,488.7,102.4,488.7,102.4z
		 M488.7,102.6C488.7,102.7,488.7,102.7,488.7,102.6C488.7,102.7,488.7,102.7,488.7,102.6C488.7,102.7,488.7,102.7,488.7,102.6
		C488.7,102.7,488.7,102.6,488.7,102.6z M488.7,102.7C488.7,102.7,488.7,102.7,488.7,102.7C488.7,102.7,488.7,102.7,488.7,102.7
		C488.7,102.7,488.7,102.7,488.7,102.7C488.7,102.7,488.7,102.7,488.7,102.7z M488.6,102.8C488.6,102.8,488.6,102.8,488.6,102.8
		C488.6,102.8,488.6,102.8,488.6,102.8C488.6,102.8,488.6,102.8,488.6,102.8C488.6,102.8,488.6,102.8,488.6,102.8z M488.6,102.9
		C488.6,102.9,488.6,102.9,488.6,102.9C488.6,102.9,488.6,102.9,488.6,102.9C488.6,102.9,488.6,102.9,488.6,102.9
		C488.6,102.9,488.6,102.9,488.6,102.9z M488.6,102.9C488.6,102.9,488.6,102.9,488.6,102.9C488.6,102.9,488.6,102.9,488.6,102.9
		C488.6,102.9,488.6,102.9,488.6,102.9C488.6,102.9,488.6,102.9,488.6,102.9z M488.6,102.9C488.6,103,488.6,103,488.6,102.9
		C488.6,103,488.6,103,488.6,102.9C488.6,103,488.6,103,488.6,102.9C488.6,103,488.6,103,488.6,102.9z M488.5,103.3
		C488.5,103.3,488.5,103.3,488.5,103.3C488.5,103.3,488.5,103.3,488.5,103.3C488.5,103.3,488.5,103.3,488.5,103.3z M488.4,103.5
		C488.4,103.5,488.4,103.5,488.4,103.5C488.4,103.5,488.4,103.5,488.4,103.5C488.4,103.5,488.4,103.5,488.4,103.5
		C488.4,103.5,488.4,103.5,488.4,103.5z M488.4,103.6C488.4,103.6,488.4,103.6,488.4,103.6C488.4,103.6,488.4,103.6,488.4,103.6
		C488.4,103.6,488.4,103.6,488.4,103.6z M488.4,103.6C488.4,103.6,488.4,103.6,488.4,103.6C488.4,103.6,488.4,103.6,488.4,103.6
		C488.4,103.6,488.4,103.6,488.4,103.6C488.4,103.6,488.4,103.6,488.4,103.6z M488.4,103.6C488.4,103.6,488.4,103.6,488.4,103.6
		C488.4,103.6,488.4,103.6,488.4,103.6C488.4,103.6,488.4,103.6,488.4,103.6C488.4,103.6,488.4,103.6,488.4,103.6z M488.4,103.4
		C488.4,103.4,488.4,103.4,488.4,103.4C488.4,103.4,488.4,103.4,488.4,103.4C488.4,103.4,488.4,103.4,488.4,103.4
		C488.4,103.4,488.4,103.4,488.4,103.4z M488.4,103.5C488.4,103.5,488.4,103.5,488.4,103.5C488.4,103.5,488.4,103.5,488.4,103.5z
		 M488.3,103.6C488.3,103.6,488.3,103.6,488.3,103.6C488.4,103.6,488.3,103.6,488.3,103.6C488.3,103.6,488.3,103.6,488.3,103.6z
		 M488.3,103.7C488.3,103.7,488.4,103.7,488.3,103.7C488.4,103.7,488.4,103.7,488.3,103.7C488.4,103.7,488.4,103.7,488.3,103.7z
		 M488.4,103.8C488.4,103.8,488.4,103.8,488.4,103.8C488.4,103.8,488.3,103.8,488.4,103.8C488.3,103.8,488.3,103.7,488.4,103.8
		C488.4,103.8,488.4,103.8,488.4,103.8z M488.3,103.8C488.3,103.8,488.3,103.8,488.3,103.8C488.3,103.8,488.3,103.8,488.3,103.8
		C488.3,103.8,488.3,103.8,488.3,103.8C488.3,103.8,488.3,103.8,488.3,103.8z M488.3,103.8C488.3,103.8,488.3,103.8,488.3,103.8
		C488.3,103.8,488.3,103.8,488.3,103.8z M488.3,103.8C488.3,103.8,488.3,103.8,488.3,103.8C488.3,103.8,488.3,103.8,488.3,103.8
		C488.3,103.8,488.3,103.8,488.3,103.8C488.3,103.8,488.3,103.8,488.3,103.8z M488.2,104.2C488.2,104.2,488.2,104.2,488.2,104.2
		C488.2,104.2,488.2,104.2,488.2,104.2C488.2,104.1,488.2,104.1,488.2,104.2C488.2,104.2,488.2,104.2,488.2,104.2
		C488.2,104.2,488.2,104.2,488.2,104.2z M488,104.7C488,104.7,488,104.7,488,104.7C488,104.7,488,104.7,488,104.7
		C488,104.7,488,104.7,488,104.7C488,104.7,488,104.7,488,104.7z M486.1,106C486.1,106,486.1,106,486.1,106
		C486.1,106,486.2,106,486.1,106C486.2,106,486.2,106,486.1,106C486.2,106,486.2,106,486.1,106z M486.7,106.2
		C486.7,106.2,486.7,106.2,486.7,106.2C486.7,106.2,486.7,106.2,486.7,106.2C486.7,106.2,486.7,106.2,486.7,106.2
		C486.7,106.2,486.7,106.2,486.7,106.2z M487.1,106.4C487.1,106.4,487.1,106.4,487.1,106.4C487.1,106.4,487.1,106.4,487.1,106.4
		C487.1,106.4,487.1,106.4,487.1,106.4C487.1,106.4,487.1,106.4,487.1,106.4z M487.6,108.8C487.6,108.8,487.6,108.8,487.6,108.8
		C487.6,108.7,487.6,108.7,487.6,108.8C487.6,108.7,487.6,108.7,487.6,108.8C487.6,108.8,487.6,108.8,487.6,108.8z M488.4,108.1
		C488.4,108.1,488.4,108.1,488.4,108.1C488.4,108.1,488.4,108.1,488.4,108.1C488.4,108.1,488.4,108.1,488.4,108.1z M489.5,106.9
		C489.5,106.9,489.5,106.9,489.5,106.9C489.5,106.8,489.5,106.8,489.5,106.9C489.5,106.8,489.5,106.8,489.5,106.9
		C489.5,106.9,489.5,106.9,489.5,106.9z M489.6,106.7C489.6,106.8,489.6,106.8,489.6,106.7C489.6,106.8,489.6,106.8,489.6,106.7z
		 M489.6,106.7C489.6,106.7,489.7,106.7,489.6,106.7C489.7,106.7,489.7,106.7,489.6,106.7z M489.8,106.7
		C489.8,106.7,489.8,106.7,489.8,106.7C489.8,106.7,489.8,106.6,489.8,106.7C489.8,106.6,489.8,106.6,489.8,106.7
		C489.8,106.7,489.8,106.7,489.8,106.7z M490.4,106.5C490.4,106.5,490.4,106.5,490.4,106.5c-0.1,0-0.1,0-0.1,0c0,0,0,0,0,0
		c-0.1,0-0.1,0-0.2,0c0,0-0.1,0-0.1,0c0,0-0.1,0-0.1,0c0,0,0,0,0,0c0,0-0.1,0-0.1,0c0,0,0,0,0,0c0,0,0,0,0,0c0,0,0,0,0,0
		c0,0,0,0,0,0c0,0,0,0-0.1,0c0,0,0,0,0,0c0,0,0,0,0,0c0,0,0,0,0,0c0,0-0.1,0-0.1,0.1c0,0,0,0,0,0c0,0-0.1,0-0.1,0.1c0,0,0,0,0,0
		c0,0-0.1,0.1-0.1,0.1c0,0,0,0-0.1,0.1c0,0,0,0-0.1,0.1c0,0,0,0,0,0c0,0,0,0,0,0c0,0,0,0-0.1,0.1c0,0,0,0,0,0c0,0,0,0,0,0
		c0,0,0,0,0,0c0,0,0,0,0,0c0,0,0,0,0,0c0,0,0,0,0,0c0,0,0,0.1-0.1,0.1c0,0,0,0,0,0.1c0,0,0,0,0,0c0,0,0,0,0,0c0,0,0,0,0,0
		c0,0-0.1,0.1-0.1,0.1c0,0,0,0,0,0c0,0,0,0,0,0.1c0,0,0,0.1-0.1,0.1c0,0,0,0.1-0.1,0.1c0,0,0,0-0.1,0.1c0,0,0,0,0,0c0,0,0,0,0,0.1
		c0,0,0,0,0,0c0,0,0,0,0,0c0,0,0,0,0,0.1c0,0,0,0,0,0c0,0,0,0,0,0.1c0,0,0,0,0,0c0,0,0,0,0,0c0,0,0,0,0,0c0,0,0,0,0,0c0,0,0,0,0,0
		c0,0,0,0,0,0c0,0,0,0,0,0c0,0,0,0,0,0c0,0,0,0,0,0c0,0,0,0-0.1,0c0,0,0,0,0,0c0,0,0,0,0,0c0,0-0.1,0.1-0.1,0.1c0,0,0,0,0,0
		c0,0,0,0.1,0,0.1c0,0,0,0.1-0.1,0.1c0-0.1,0-0.1,0-0.2c0,0,0,0,0,0c0,0,0-0.1,0-0.1s0-0.1,0-0.1c0,0,0-0.1,0-0.1c0,0,0,0,0,0
		c0,0,0-0.1,0-0.1c0,0,0-0.1,0-0.1c0,0,0-0.1,0-0.1c0,0,0-0.1,0-0.1c0,0,0,0,0,0c0,0,0,0,0-0.1c0,0,0,0,0,0c0,0,0,0,0,0c0,0,0,0,0,0
		c0,0,0,0,0,0c0,0,0-0.1,0-0.1c0,0,0,0,0,0c0-0.1,0-0.1,0-0.2c0,0,0,0,0,0c0,0,0-0.1-0.1-0.1c0-0.1-0.1-0.1-0.1-0.2
		c0,0,0-0.1-0.1-0.1c0,0,0,0,0,0c0,0,0,0-0.1,0c0,0,0,0,0,0c0,0,0,0-0.1-0.1c0,0,0,0,0,0c0,0,0,0-0.1-0.1c0,0,0,0-0.1,0
		c0,0,0,0-0.1-0.1c0,0,0,0,0,0c0,0,0,0,0,0c0,0,0,0-0.1,0c0,0,0,0-0.1,0c0,0-0.1,0-0.1,0c0,0,0,0-0.1,0c0,0,0,0,0,0c0,0,0,0,0,0
		c0,0-0.1,0-0.1-0.1c0,0-0.1,0-0.1,0c0,0,0,0,0,0c0,0-0.1,0-0.2-0.1c0,0-0.1,0-0.1,0c0,0,0,0-0.1,0c0,0,0,0,0,0c0,0,0,0,0,0
		c0,0-0.1,0-0.1,0c0,0,0,0,0,0c0,0-0.1,0-0.1,0c0,0,0,0-0.1,0c0,0,0,0-0.1,0c0,0,0,0,0,0c0,0,0,0,0,0c0,0,0,0,0.1,0c0,0,0,0,0.1,0
		c0,0,0,0,0,0c0,0,0,0,0,0c0,0,0,0,0,0c0,0,0,0,0,0c0,0,0,0,0,0c0,0,0,0,0,0c0,0,0,0,0,0c0,0,0.1,0,0.1,0c0,0,0.1,0,0.1,0
		c0,0,0,0,0.1,0c0,0,0.1,0,0.1,0c0,0,0,0,0.1,0c0,0,0,0,0,0c0,0,0,0,0.1,0c0,0,0,0,0,0c0,0,0.1,0,0.1,0c0,0,0,0,0,0c0,0,0.1,0,0.1,0
		c0,0,0.1,0,0.1,0c0,0,0,0,0.1,0c0,0,0,0,0.1,0c0,0,0.1,0,0.1,0c0,0,0.1,0,0.1,0c0,0,0,0,0,0c0,0,0,0,0,0c0,0,0,0,0,0
		c0,0,0.1,0,0.1,0c0,0,0.1,0,0.1-0.1c0,0,0-0.1,0.1-0.1c0,0,0,0,0,0c0,0,0,0,0,0c0-0.1,0.1-0.1,0.1-0.2c0,0,0-0.1,0.1-0.1
		c0,0,0-0.1,0.1-0.1c0,0,0-0.1,0-0.1c0,0,0,0,0-0.1c0,0,0,0,0,0c0,0,0-0.1,0.1-0.1c0,0,0,0,0-0.1c0,0,0-0.1,0-0.1c0,0,0,0,0,0
		c0,0,0-0.1,0.1-0.1c0,0,0,0,0,0c0,0,0-0.1,0-0.1c0,0,0,0,0-0.1c0,0,0,0,0,0c0,0,0,0,0,0c0,0,0-0.1,0-0.1c0,0,0,0,0,0c0,0,0,0,0,0
		c0,0,0-0.1,0-0.1c0,0,0-0.1,0-0.1c0,0,0,0,0,0c0,0,0,0,0,0c0,0,0-0.1,0-0.1c0,0,0,0,0,0c0,0,0,0,0,0c0,0,0,0,0,0c0,0,0,0,0,0
		c0,0,0,0,0,0c0,0,0,0.1,0,0.1c0,0,0,0.1,0,0.1c0,0,0,0,0,0c0,0,0,0.1,0,0.1c0,0,0,0,0,0c0,0,0,0.1,0,0.1s0,0.1,0,0.1c0,0,0,0,0,0.1
		c0,0,0,0.1,0,0.1c0,0,0,0,0,0c0,0,0,0,0,0.1c0,0,0,0,0,0c0,0,0,0.1,0,0.1c0,0,0,0.1,0,0.1c0,0,0,0,0,0c0,0.1,0,0.1,0.1,0.2
		c0,0,0,0.1,0,0.1c0,0,0,0,0,0c0,0,0,0,0,0c0,0,0,0,0,0.1c0,0,0,0,0,0c0,0,0,0,0,0c0,0,0,0,0,0.1c0,0,0,0.1,0,0.1c0,0,0,0.1,0.1,0.1
		c0,0,0,0,0,0.1c0,0,0,0,0,0c0,0,0,0,0,0c0,0,0,0.1,0.1,0.1c0,0,0,0,0,0c0,0,0,0,0,0c0,0,0,0.1,0.1,0.1c0,0,0,0,0,0c0,0,0,0,0,0
		c0,0,0,0,0,0c0,0,0,0,0,0c0,0,0,0,0,0c0,0,0,0,0,0c0,0,0,0,0,0c0,0,0,0,0,0c0,0,0,0,0,0c0,0,0,0,0,0c0,0,0,0,0,0c0,0,0,0,0,0
		c0,0,0,0,0,0c0,0,0,0,0,0c0,0,0,0,0,0c0,0.1,0.1,0.1,0.2,0.1c0,0,0,0,0,0c0,0,0,0,0,0c0,0,0,0,0,0c0,0,0,0,0,0c0,0,0,0,0,0
		c0,0,0,0,0,0c0,0,0,0,0,0c0,0,0,0,0,0c0,0,0.1,0,0.1,0c0,0,0,0,0,0c0,0,0,0,0,0c0,0,0,0,0,0c0,0,0,0,0.1,0c0,0,0,0,0.1,0
		c0,0,0,0,0,0c0,0,0,0,0,0c0,0,0,0,0,0c0,0,0,0,0.1,0C490.3,106.4,490.3,106.4,490.4,106.5C490.3,106.4,490.3,106.4,490.4,106.5
		C490.3,106.4,490.4,106.4,490.4,106.5C490.4,106.4,490.4,106.4,490.4,106.5C490.4,106.4,490.4,106.5,490.4,106.5
		C490.4,106.5,490.4,106.5,490.4,106.5z"></path>
	<path d="M491.7,87.1C491.7,87,491.7,87,491.7,87.1C491.7,87,491.7,87,491.7,87.1C491.7,87,491.7,87,491.7,87.1
		C491.7,87,491.7,87,491.7,87.1C491.6,87,491.6,87,491.7,87.1C491.6,87,491.6,87,491.7,87.1c-0.1-0.1-0.1-0.1-0.1-0.1c0,0,0,0,0,0
		c0,0,0,0,0,0c0,0,0,0,0,0c0,0,0,0,0,0c0,0,0,0-0.1,0c0,0,0,0,0,0c0,0,0,0,0,0c0,0,0,0,0,0c0,0,0,0-0.1,0c0,0,0,0,0,0c0,0,0,0-0.1,0
		c0,0,0,0,0,0c0,0,0,0-0.1,0c0,0,0,0-0.1,0c0,0,0,0-0.1,0c0,0,0,0,0,0c0,0,0,0,0,0c0,0,0,0,0,0c0,0,0,0,0,0c0,0,0,0,0,0c0,0,0,0,0,0
		c0,0,0,0,0,0c0,0,0,0,0,0c0,0,0,0,0,0c0,0,0,0,0,0c0,0,0,0,0,0c0,0,0,0,0,0c0,0,0,0,0,0c0,0,0,0-0.1,0c0,0,0,0,0,0c0,0,0,0,0,0
		c0,0,0,0,0,0c0,0,0,0,0,0c0,0,0,0,0,0c0,0,0,0,0-0.1c0,0,0,0,0,0c0,0,0,0,0,0c0,0,0,0,0,0c0,0,0,0,0,0c0,0,0,0,0,0c0,0,0,0,0,0
		c0,0,0,0,0,0c0,0,0,0,0,0c0,0,0,0,0,0c0,0,0,0,0,0c0,0,0,0,0,0c0,0,0,0,0-0.1c0,0,0,0,0,0c0,0,0,0,0-0.1c0,0,0,0,0,0c0,0,0,0,0-0.1
		c0,0,0,0,0,0c0,0,0,0,0,0c0,0,0,0,0-0.1c0,0,0,0,0,0c0,0,0,0,0-0.1c0,0,0-0.1,0-0.1c0,0,0-0.1,0-0.1c0,0,0,0,0,0c0,0,0,0,0,0
		c0,0,0,0,0-0.1c0,0,0,0,0-0.1c0,0,0-0.1,0-0.1c0,0,0,0,0-0.1c0,0,0-0.1,0-0.1c0,0,0-0.1,0-0.1c0,0,0-0.1,0-0.1c0,0,0-0.1,0-0.1
		c0-0.1,0-0.2,0-0.3c0,0,0,0,0,0c0,0,0,0,0,0c0,0,0,0,0,0c0,0,0,0-0.1,0c0,0,0,0,0,0c0,0,0,0,0,0c0,0,0,0,0,0c0,0,0,0,0,0
		c0,0,0,0,0,0c0,0,0,0,0,0c0,0,0,0,0,0c0,0,0,0,0,0c0,0,0,0,0,0c0,0,0,0,0,0c0,0,0,0,0,0c0,0,0,0,0,0c0,0,0,0,0,0c0,0,0,0,0,0
		c0,0,0,0,0,0c0,0,0,0,0,0c0,0,0,0,0,0c0,0,0,0,0,0c0,0,0,0,0,0c0,0,0,0,0,0c0,0,0,0,0,0c0,0,0,0,0,0c0,0,0,0,0,0c0,0,0,0,0,0
		c0,0,0,0,0,0c0,0,0,0,0,0c0,0,0,0,0,0c0,0,0,0,0,0.1c0,0,0,0.1,0,0.1c0,0,0,0,0,0c0,0,0,0,0,0c0,0,0,0,0,0c0,0,0,0,0,0.1
		c0,0,0,0,0,0c0,0,0,0,0,0c0,0,0,0,0,0.1c0,0,0,0,0,0c0,0,0,0,0,0c0,0,0,0,0,0c0,0,0,0,0,0c0,0,0,0,0,0c0,0,0,0,0,0c0,0,0,0,0,0
		c0,0,0,0,0,0c0,0,0,0,0,0c0,0,0,0,0,0c0,0,0,0,0,0c0,0,0,0,0,0c0,0,0,0,0,0c0,0,0,0,0,0c0,0,0,0,0,0c0,0,0,0,0,0c0,0,0,0,0,0
		c0,0,0,0.1,0,0.1c0,0,0,0,0,0c0,0,0,0,0,0c0,0,0,0,0,0c0,0,0,0,0,0c0,0,0,0,0,0c0,0,0,0,0,0c0,0,0,0,0,0c0,0,0,0,0,0c0,0,0,0,0,0
		c0,0,0,0,0,0c0,0,0,0,0,0c0,0,0,0,0,0c0,0,0,0,0,0c0,0,0,0,0,0c0,0,0,0,0,0c0,0,0,0,0,0c0,0,0,0,0,0c0,0,0,0,0,0c0,0,0,0,0,0
		c0,0,0,0,0,0c0,0,0,0,0,0.1c0,0,0,0,0,0c0,0,0,0,0,0c0,0,0,0,0,0c0,0,0,0,0,0c0,0-0.1,0-0.1,0.1c0,0,0,0,0,0c0,0,0,0-0.1,0
		c0,0,0,0,0,0c0,0,0,0,0,0c0,0,0,0,0,0c0,0,0,0,0,0c0,0,0,0,0,0c0,0,0,0,0,0c0,0,0,0-0.1,0c0,0,0,0-0.1,0c0,0,0,0,0,0c0,0,0,0-0.1,0
		c0,0-0.1,0-0.1,0c0,0-0.1,0-0.1,0c-0.1,0-0.1,0-0.2,0c0,0-0.1,0-0.1,0c0,0,0,0-0.1,0c0,0,0,0,0,0c0,0,0,0-0.1,0l0,0c0,0,0,0,0,0
		c0,0,0,0,0,0c0,0,0,0,0,0c0,0,0,0,0,0c0,0,0,0,0,0c0,0,0,0,0,0c0,0,0,0-0.1,0c0,0,0,0,0,0c0,0-0.1,0-0.1,0c0,0,0,0,0,0c0,0,0,0,0,0
		c0,0,0,0,0,0c0,0,0,0,0,0c0,0,0,0,0,0c0,0,0,0,0,0c0,0,0,0,0,0c0,0,0,0,0,0c0,0,0,0,0,0c0,0,0,0,0.1,0c0,0,0.1,0,0.1,0
		c0,0,0.1,0,0.1,0c0,0,0.1,0,0.1,0c0,0,0,0,0.1,0c0,0,0,0,0,0c0,0,0.1,0,0.1,0c0,0,0,0,0,0c0,0,0,0,0,0c0,0,0,0,0,0c0,0,0,0,0,0
		c0,0,0,0,0,0c0,0,0,0,0,0c0,0,0,0,0,0c0,0,0.1,0,0.1,0c0,0,0.1,0,0.1,0c0,0,0.1,0,0.1,0c0,0,0,0,0,0c0,0,0,0,0,0c0,0,0,0,0,0
		c0,0,0.1,0,0.1,0.1c0,0,0,0,0,0c0,0,0,0,0,0c0,0,0,0,0,0c0,0,0.1,0.1,0.1,0.1c0,0,0,0,0,0c0,0,0,0,0,0c0,0,0,0,0,0c0,0,0,0,0,0
		c0,0,0,0,0,0c0,0,0,0,0,0c0,0,0,0,0,0c0,0,0,0,0,0c0,0,0,0,0,0c0,0,0,0,0,0c0,0,0,0,0,0c0,0,0,0,0,0c0,0,0,0,0,0c0,0,0,0,0,0
		c0,0,0,0,0,0c0,0,0,0,0,0c0,0,0,0,0,0c0,0,0,0,0,0c0,0,0,0,0,0c0,0,0,0,0,0c0,0,0,0,0,0c0,0,0,0,0,0c0,0,0,0,0,0c0,0,0,0,0,0
		c0,0,0,0,0,0.1c0,0,0,0,0,0c0,0,0,0,0,0c0,0,0,0,0,0c0,0,0,0,0,0c0,0,0,0,0,0c0,0,0,0,0,0.1c0,0,0,0,0,0c0,0,0,0,0,0c0,0,0,0,0,0.1
		c0,0,0,0,0,0c0,0,0,0,0,0c0,0,0,0,0,0c0,0,0,0,0,0c0,0,0,0,0,0c0,0,0,0,0,0c0,0,0,0,0,0c0,0,0,0,0,0c0,0,0,0,0,0c0,0,0,0,0,0
		c0,0,0,0,0,0c0,0,0,0,0,0c0,0,0,0,0,0c0,0,0,0,0,0c0,0,0,0,0,0c0,0,0,0,0,0c0,0,0,0,0,0.1c0,0,0,0,0,0c0,0,0,0,0,0c0,0,0,0.1,0,0.1
		c0,0,0,0,0,0c0,0,0,0,0,0c0,0,0,0,0,0c0,0,0,0,0,0c0,0,0,0,0,0c0,0,0,0,0,0.1c0,0,0,0,0,0c0,0,0,0,0,0c0,0,0,0,0,0c0,0,0,0,0,0
		c0,0,0,0,0,0c0,0,0,0,0,0c0,0,0,0,0,0c0,0,0,0,0,0c0,0,0,0,0,0c0,0,0,0,0,0c0,0,0,0,0,0c0,0,0,0,0,0c0,0,0,0,0,0c0,0,0,0,0,0.1
		c0,0,0,0,0,0c0,0,0,0,0,0c0,0,0,0,0,0c0,0,0,0,0,0c0,0,0,0,0,0c0,0,0,0,0,0c0,0,0,0,0,0c0,0,0,0,0,0c0,0,0,0,0,0c0,0,0,0,0,0
		c0,0,0,0,0,0c0,0,0,0,0,0c0,0,0,0,0,0c0,0,0,0,0,0c0,0,0,0,0,0c0,0,0,0,0,0c0,0,0,0,0,0c0,0,0,0,0,0c0,0,0,0,0,0c0,0,0,0,0,0
		c0,0,0,0,0,0c0,0,0,0,0,0c0,0,0,0,0-0.1c0,0,0-0.1,0-0.1c0,0,0,0,0,0c0,0,0,0,0,0c0,0,0-0.1,0-0.1c0,0,0-0.1,0-0.1c0,0,0,0,0,0
		c0,0,0,0,0,0c0,0,0,0,0-0.1c0,0,0,0,0,0c0,0,0,0,0,0c0,0,0,0,0,0c0,0,0,0,0,0c0,0,0,0,0,0c0,0,0,0,0,0c0,0,0,0,0,0c0,0,0,0,0,0
		c0,0,0-0.1,0-0.1c0,0,0,0,0,0c0,0,0,0,0,0c0,0,0,0,0-0.1c0,0,0,0,0,0c0,0,0,0,0,0c0,0,0,0,0,0c0,0,0,0,0,0c0,0,0,0,0,0c0,0,0,0,0,0
		c0,0,0,0,0,0c0,0,0,0,0,0c0,0,0,0,0-0.1c0,0,0,0,0,0c0,0,0,0,0,0c0,0,0,0,0,0c0,0,0,0,0,0c0,0,0,0,0,0c0,0,0,0,0,0c0,0,0,0,0,0
		c0,0,0,0,0,0c0,0,0,0,0,0c0,0,0,0,0,0c0,0,0,0,0,0c0,0,0,0,0,0c0,0,0,0,0,0c0,0,0,0,0,0c0,0,0,0,0,0c0,0,0,0,0,0c0,0,0,0,0,0
		c0,0,0,0,0,0c0,0,0,0,0,0c0,0,0,0,0,0c0,0,0,0,0,0c0,0,0,0,0,0c0,0,0-0.1,0.1-0.1c0,0,0,0,0,0c0,0,0,0,0,0c0,0,0,0,0.1-0.1
		c0,0,0,0,0,0c0,0,0,0,0,0c0,0,0,0,0,0c0,0,0.1,0,0.1-0.1c0,0,0,0,0,0c0,0,0.1,0,0.1-0.1c0,0,0,0,0,0c0,0,0,0,0.1,0c0,0,0,0,0,0
		c0,0,0.1,0,0.1,0c0,0,0,0,0.1,0c0,0,0,0,0.1,0c0,0,0.1,0,0.1,0c0,0,0,0,0,0c0,0,0,0,0.1,0c0,0,0.1,0,0.1,0c0,0,0.1,0,0.1,0
		c0,0,0,0,0.1,0c0,0,0.1,0,0.1,0C491.6,87.2,491.6,87.2,491.7,87.1C491.6,87.2,491.6,87.1,491.7,87.1
		C491.7,87.1,491.7,87.1,491.7,87.1C491.7,87.1,491.7,87.1,491.7,87.1C491.7,87.1,491.7,87.1,491.7,87.1z M490.8,86.8
		C490.8,86.8,490.8,86.8,490.8,86.8C490.7,86.8,490.7,86.8,490.8,86.8C490.8,86.8,490.8,86.8,490.8,86.8z M490.5,86.7
		C490.5,86.7,490.5,86.7,490.5,86.7C490.5,86.7,490.5,86.7,490.5,86.7C490.5,86.7,490.5,86.7,490.5,86.7
		C490.5,86.7,490.5,86.7,490.5,86.7z M490,85.7C490,85.7,490,85.7,490,85.7C490,85.7,490,85.7,490,85.7C490,85.7,490,85.7,490,85.7
		C490,85.7,490,85.7,490,85.7z M490,85.7C490,85.7,490,85.7,490,85.7C490,85.7,490,85.7,490,85.7C490,85.7,490,85.7,490,85.7
		C490,85.7,490,85.7,490,85.7z M490,85.6C490,85.6,490,85.6,490,85.6C490,85.6,490,85.6,490,85.6z M490,84.7
		C490,84.7,490,84.7,490,84.7C490,84.7,490,84.7,490,84.7C490,84.7,490,84.7,490,84.7C490,84.7,490,84.7,490,84.7z M490,84.7
		C490,84.7,490,84.7,490,84.7C490,84.7,490,84.7,490,84.7C490,84.7,490,84.7,490,84.7C490,84.7,490,84.7,490,84.7z M490,84.6
		C490,84.6,490,84.6,490,84.6C490,84.6,490,84.6,490,84.6z M490,84.8C490,84.8,490,84.8,490,84.8C490,84.8,490,84.8,490,84.8
		C490,84.8,490,84.8,490,84.8C490,84.8,490,84.8,490,84.8z M490,84.8C490,84.8,490,84.8,490,84.8C490,84.8,490,84.8,490,84.8
		C490,84.8,490,84.8,490,84.8C490,84.8,490,84.8,490,84.8z M489.9,84.9C489.9,84.9,489.9,84.9,489.9,84.9
		C489.9,84.9,489.9,84.9,489.9,84.9C489.9,84.9,489.9,84.9,489.9,84.9C489.9,84.9,489.9,84.9,489.9,84.9z M489.9,84.9
		C489.9,84.9,489.9,84.9,489.9,84.9C489.9,84.9,489.9,84.9,489.9,84.9C489.9,84.9,489.9,84.9,489.9,84.9
		C489.9,84.9,489.9,84.9,489.9,84.9z M489.9,84.9C489.9,84.9,489.9,84.9,489.9,84.9C489.9,84.9,489.9,84.9,489.9,84.9
		C489.9,84.9,489.9,84.9,489.9,84.9C489.9,84.9,489.9,84.9,489.9,84.9z M489.9,84.9C489.9,84.9,489.9,84.9,489.9,84.9
		C489.9,84.9,489.9,84.9,489.9,84.9C489.9,84.9,489.9,84.9,489.9,84.9C489.9,84.9,489.9,84.9,489.9,84.9z M489.8,85.1
		C489.8,85.1,489.9,85.1,489.8,85.1C489.9,85.1,489.9,85.1,489.8,85.1C489.8,85.1,489.8,85.1,489.8,85.1z M489.8,85.2
		C489.8,85.2,489.8,85.2,489.8,85.2C489.8,85.2,489.8,85.2,489.8,85.2C489.8,85.2,489.8,85.2,489.8,85.2
		C489.8,85.2,489.8,85.2,489.8,85.2z M489.8,85.3C489.8,85.3,489.8,85.3,489.8,85.3C489.8,85.3,489.8,85.3,489.8,85.3
		C489.8,85.3,489.8,85.3,489.8,85.3z M489.8,85.3C489.8,85.3,489.8,85.3,489.8,85.3C489.8,85.3,489.8,85.3,489.8,85.3
		C489.8,85.3,489.8,85.3,489.8,85.3C489.8,85.3,489.8,85.3,489.8,85.3z M489.8,85.3C489.8,85.3,489.8,85.3,489.8,85.3
		C489.8,85.3,489.8,85.3,489.8,85.3C489.8,85.3,489.8,85.3,489.8,85.3C489.8,85.3,489.8,85.3,489.8,85.3z M489.8,85.2
		C489.8,85.2,489.8,85.2,489.8,85.2C489.8,85.2,489.8,85.2,489.8,85.2C489.8,85.2,489.8,85.2,489.8,85.2
		C489.8,85.2,489.8,85.2,489.8,85.2z M489.8,85.2C489.8,85.2,489.8,85.2,489.8,85.2C489.8,85.2,489.8,85.2,489.8,85.2z M489.8,85.3
		C489.8,85.3,489.8,85.3,489.8,85.3C489.8,85.3,489.8,85.3,489.8,85.3C489.8,85.3,489.8,85.3,489.8,85.3z M489.8,85.3
		C489.8,85.3,489.8,85.3,489.8,85.3C489.8,85.3,489.8,85.3,489.8,85.3C489.8,85.3,489.8,85.3,489.8,85.3z M489.8,85.4
		C489.8,85.4,489.8,85.4,489.8,85.4C489.8,85.4,489.8,85.4,489.8,85.4C489.8,85.4,489.8,85.4,489.8,85.4
		C489.8,85.4,489.8,85.4,489.8,85.4z M489.8,85.4C489.8,85.4,489.8,85.4,489.8,85.4C489.8,85.4,489.8,85.4,489.8,85.4
		C489.8,85.4,489.8,85.4,489.8,85.4C489.8,85.4,489.8,85.4,489.8,85.4z M489.7,85.4C489.7,85.4,489.7,85.4,489.7,85.4
		C489.7,85.4,489.7,85.4,489.7,85.4z M489.7,85.4C489.7,85.4,489.7,85.4,489.7,85.4C489.7,85.4,489.7,85.4,489.7,85.4
		C489.7,85.4,489.7,85.4,489.7,85.4C489.7,85.4,489.7,85.4,489.7,85.4z M489.7,85.6C489.7,85.6,489.7,85.6,489.7,85.6
		C489.7,85.6,489.7,85.6,489.7,85.6C489.7,85.6,489.7,85.6,489.7,85.6C489.7,85.6,489.7,85.6,489.7,85.6
		C489.7,85.6,489.7,85.6,489.7,85.6z M489.6,85.9C489.6,85.9,489.6,85.9,489.6,85.9C489.6,85.9,489.6,85.9,489.6,85.9
		C489.6,85.9,489.6,85.9,489.6,85.9C489.6,85.9,489.6,85.9,489.6,85.9z M488.5,86.7C488.5,86.7,488.5,86.7,488.5,86.7
		C488.5,86.7,488.5,86.7,488.5,86.7C488.5,86.7,488.5,86.7,488.5,86.7C488.5,86.7,488.5,86.7,488.5,86.7z M488.9,86.8
		C488.9,86.8,488.9,86.8,488.9,86.8C488.9,86.7,488.9,86.7,488.9,86.8C488.9,86.7,488.9,86.7,488.9,86.8
		C488.9,86.8,488.9,86.8,488.9,86.8z M489.1,86.9C489.1,86.9,489.1,86.9,489.1,86.9C489.1,86.9,489.1,86.9,489.1,86.9
		C489.1,86.9,489.1,86.9,489.1,86.9C489.1,86.9,489.1,86.9,489.1,86.9z M489.4,88.2C489.4,88.2,489.4,88.2,489.4,88.2
		C489.4,88.2,489.4,88.2,489.4,88.2C489.4,88.2,489.4,88.2,489.4,88.2C489.4,88.2,489.4,88.2,489.4,88.2z M489.8,87.8
		C489.8,87.8,489.8,87.8,489.8,87.8C489.8,87.8,489.8,87.8,489.8,87.8C489.8,87.8,489.8,87.8,489.8,87.8z M490.4,87.1
		C490.4,87.1,490.4,87.1,490.4,87.1C490.4,87.1,490.4,87.1,490.4,87.1C490.4,87.1,490.4,87.1,490.4,87.1
		C490.4,87.1,490.4,87.1,490.4,87.1z M490.5,87.1C490.5,87.1,490.5,87.1,490.5,87.1C490.5,87.1,490.5,87.1,490.5,87.1z M490.5,87.1
		C490.5,87.1,490.5,87.1,490.5,87.1C490.5,87.1,490.5,87.1,490.5,87.1z M490.6,87C490.6,87,490.6,87,490.6,87
		C490.6,87,490.6,87,490.6,87C490.6,87,490.6,87,490.6,87C490.6,87,490.6,87,490.6,87z M490.9,86.9
		C490.9,86.9,490.9,86.9,490.9,86.9C490.9,86.9,490.9,86.9,490.9,86.9C490.9,86.9,490.8,86.9,490.9,86.9c-0.1,0-0.2,0-0.2,0
		c0,0,0,0,0,0c0,0,0,0-0.1,0c0,0,0,0,0,0c0,0,0,0,0,0c0,0,0,0,0,0c0,0,0,0,0,0c0,0,0,0,0,0c0,0,0,0,0,0c0,0,0,0,0,0c0,0,0,0,0,0
		c0,0,0,0,0,0c0,0,0,0,0,0c0,0,0,0-0.1,0c0,0,0,0,0,0c0,0,0,0,0,0c0,0,0,0,0,0c0,0,0,0,0,0c0,0,0,0,0,0c0,0,0,0,0,0c0,0,0,0,0,0
		c0,0,0,0,0,0c0,0,0,0,0,0c0,0,0,0,0,0c0,0,0,0,0,0c0,0,0,0,0,0c0,0,0,0,0,0c0,0,0,0,0,0c0,0,0,0,0,0c0,0,0,0,0,0c0,0,0,0,0,0
		c0,0,0,0,0,0c0,0,0,0,0,0c0,0,0,0,0,0c0,0,0,0,0,0.1c0,0,0,0,0,0c0,0,0,0,0,0c0,0,0,0,0,0c0,0,0,0,0,0c0,0,0,0,0,0c0,0,0,0,0,0
		c0,0,0,0,0,0c0,0,0,0,0,0c0,0,0,0,0,0c0,0,0,0,0,0c0,0,0,0,0,0c0,0,0,0,0,0c0,0,0,0,0,0c0,0,0,0,0,0c0,0,0,0,0,0c0,0,0,0,0,0
		c0,0,0,0,0,0c0,0,0,0,0,0c0,0,0,0,0,0c0,0,0,0,0,0c0,0,0,0,0,0c0,0,0,0,0,0c0,0,0,0,0,0c0,0,0,0,0,0c0,0,0,0,0,0.1c0,0,0,0,0,0
		c0,0,0,0,0,0.1c0,0,0,0,0,0.1c0,0,0-0.1,0-0.1c0,0,0,0,0,0c0,0,0-0.1,0-0.1c0,0,0,0,0-0.1c0,0,0,0,0-0.1c0,0,0,0,0,0
		c0,0,0-0.1,0-0.1c0,0,0,0,0-0.1c0,0,0-0.1,0-0.1c0,0,0,0,0-0.1c0,0,0,0,0,0c0,0,0,0,0,0c0,0,0,0,0,0c0,0,0,0,0,0c0,0,0,0,0,0
		c0,0,0,0,0,0c0,0,0,0,0-0.1c0,0,0,0,0,0c0,0,0-0.1,0-0.1c0,0,0,0,0,0c0,0,0-0.1,0-0.1c0,0,0-0.1-0.1-0.1c0,0,0,0,0-0.1c0,0,0,0,0,0
		c0,0,0,0,0,0c0,0,0,0,0,0c0,0,0,0,0,0c0,0,0,0,0,0c0,0,0,0,0,0c0,0,0,0,0,0c0,0,0,0,0,0c0,0,0,0,0,0c0,0,0,0,0,0c0,0,0,0,0,0
		c0,0,0,0,0,0c0,0,0,0-0.1,0c0,0,0,0,0,0c0,0,0,0,0,0c0,0,0,0,0,0c0,0,0,0-0.1,0c0,0,0,0-0.1,0c0,0,0,0,0,0c0,0-0.1,0-0.1,0
		c0,0,0,0,0,0c0,0,0,0,0,0c0,0,0,0,0,0c0,0,0,0,0,0c0,0,0,0-0.1,0c0,0,0,0,0,0c0,0,0,0-0.1,0c0,0,0,0,0,0c0,0,0,0,0,0c0,0,0,0,0,0
		c0,0,0,0,0,0c0,0,0,0,0,0c0,0,0,0,0,0c0,0,0,0,0,0c0,0,0,0,0,0c0,0,0,0,0,0c0,0,0,0,0,0c0,0,0,0,0,0c0,0,0,0,0,0c0,0,0,0,0,0
		c0,0,0,0,0,0c0,0,0,0,0,0c0,0,0,0,0,0c0,0,0,0,0.1,0c0,0,0,0,0,0c0,0,0,0,0,0c0,0,0,0,0,0c0,0,0,0,0,0c0,0,0,0,0,0c0,0,0,0,0,0
		c0,0,0,0,0,0c0,0,0.1,0,0.1,0c0,0,0,0,0,0c0,0,0,0,0,0c0,0,0,0,0.1,0c0,0,0,0,0.1,0c0,0,0,0,0,0c0,0,0,0,0,0c0,0,0,0,0,0
		c0,0,0,0,0,0c0,0,0,0,0.1,0c0,0,0,0,0,0c0,0,0,0,0,0c0,0,0,0,0,0c0,0,0-0.1,0.1-0.1c0,0,0,0,0-0.1c0,0,0,0,0-0.1c0,0,0,0,0,0
		c0,0,0,0,0,0c0,0,0,0,0,0c0,0,0,0,0-0.1c0,0,0,0,0,0c0,0,0,0,0-0.1c0,0,0,0,0,0c0,0,0,0,0-0.1c0,0,0,0,0,0c0,0,0,0,0-0.1
		c0,0,0,0,0,0c0,0,0,0,0,0c0,0,0,0,0,0c0,0,0,0,0,0c0,0,0,0,0,0c0,0,0,0,0,0c0,0,0,0,0,0c0,0,0,0,0,0c0,0,0,0,0,0c0,0,0,0,0,0
		c0,0,0,0,0,0c0,0,0,0,0,0c0,0,0,0,0,0c0,0,0,0,0,0c0,0,0,0,0,0c0,0,0,0,0,0c0,0,0,0,0,0.1c0,0,0,0,0,0.1c0,0,0,0,0,0c0,0,0,0,0,0.1
		c0,0,0,0,0,0c0,0,0,0,0,0c0,0,0,0,0,0c0,0,0,0,0,0c0,0,0,0,0,0c0,0,0,0,0,0c0,0,0,0,0,0c0,0,0,0,0,0c0,0,0,0.1,0,0.1c0,0,0,0,0,0.1
		c0,0,0,0,0,0c0,0,0,0.1,0,0.1c0,0,0,0,0,0.1c0,0,0,0,0,0c0,0,0,0,0,0c0,0,0,0,0,0c0,0,0,0,0,0c0,0,0,0,0,0c0,0,0,0,0,0c0,0,0,0,0,0
		c0,0,0,0,0,0.1c0,0,0,0,0,0c0,0,0,0,0,0c0,0,0,0,0,0c0,0,0,0,0,0c0,0,0,0,0,0c0,0,0,0,0,0c0,0,0,0,0,0c0,0,0,0,0,0c0,0,0,0,0,0
		c0,0,0,0,0,0c0,0,0,0,0,0c0,0,0,0,0,0c0,0,0,0,0,0c0,0,0,0,0,0c0,0,0,0,0,0c0,0,0,0,0,0c0,0,0,0,0,0c0,0,0,0,0,0c0,0,0,0,0,0
		c0,0,0,0,0,0c0,0,0,0,0,0c0,0,0,0,0,0c0,0,0.1,0,0.1,0c0,0,0,0,0,0c0,0,0,0,0,0c0,0,0,0,0,0c0,0,0,0,0,0c0,0,0,0,0,0c0,0,0,0,0,0
		c0,0,0,0,0,0c0,0,0,0,0,0c0,0,0,0,0.1,0c0,0,0,0,0,0c0,0,0,0,0,0c0,0,0,0,0,0c0,0,0,0,0,0c0,0,0,0,0,0c0,0,0,0,0,0c0,0,0,0,0,0
		c0,0,0,0,0,0C490.8,86.9,490.9,86.9,490.9,86.9C490.9,86.9,490.9,86.9,490.9,86.9C490.9,86.9,490.9,86.9,490.9,86.9
		C490.9,86.9,490.9,86.9,490.9,86.9C490.9,86.9,490.9,86.9,490.9,86.9C490.9,86.9,490.9,86.9,490.9,86.9
		C490.9,86.9,490.9,86.9,490.9,86.9z"></path>
</g>
<g>
	<path d="M507.9,55.3c0.4,0,0.7-0.1,1-0.1c0.4-0.1,0.8-0.2,1.2-0.1c0,0,0.1,0,0.1,0c0.4,0,0.5,0.1,0.4,0.5c0,0.2-0.2,0.4-0.3,0.6
		c-0.2,0.2-0.3,0.3-0.5,0.5c-0.3,0.3-0.5,0.5-0.8,0.8c-0.1,0.1-0.1,0.1,0,0.2c0.5,0.6,1,1.3,1.5,1.9c0.1,0.1,0.1,0.3,0.1,0.5
		c-0.1,0.2-0.2,0.4-0.4,0.3c-0.3,0-0.6,0-0.9-0.1c-0.7-0.1-1.4-0.3-2.1-0.4c-0.1,0-0.2,0-0.3-0.1c-0.2,0-0.3,0-0.3,0.2
		c-0.1,0.2-0.1,0.4-0.2,0.7c-0.2,0.6-0.3,1.1-0.5,1.7c-0.1,0.2-0.1,0.4-0.2,0.6c0,0.1-0.1,0.2-0.2,0.3c-0.1,0.1-0.1,0.1-0.3,0.1
		c-0.2-0.1-0.4-0.2-0.5-0.4c-0.3-0.4-0.6-0.9-1-1.3c0,0-0.1-0.1-0.1-0.1c0,0,0,0,0,0c-0.6,0.4-1.1,0.8-1.7,1.2
		c-0.2,0.2-0.4,0.3-0.7,0.4c-0.4,0.2-0.7,0.1-0.8-0.3c-0.1-0.3-0.1-0.6-0.1-0.9c0-0.5-0.1-1-0.1-1.5c0-0.1-0.1-0.2-0.1-0.2
		c-0.3-0.2-0.6-0.3-1-0.5c-0.5-0.2-0.9-0.4-1.5-0.4c0,0-0.1,0-0.1,0c-0.4-0.1-0.5-0.5-0.2-0.7c0.1-0.1,0.2-0.1,0.3-0.2
		c0.6-0.4,1.2-0.9,1.7-1.4c0,0,0.1-0.1,0.1-0.1c-0.1-0.1-0.1-0.2-0.2-0.3c-0.3-0.4-0.7-0.9-1-1.3c-0.1-0.1-0.2-0.2-0.1-0.4
		c0.1-0.1,0.2-0.1,0.4-0.1c0.3,0,0.7,0.1,1,0.1c0.4,0.1,0.9,0.1,1.3,0.2c0.1,0,0.3,0,0.5,0.1c0-0.1,0-0.2,0-0.3
		c0.1-0.5,0.1-1,0.2-1.5c0-0.3,0-0.5,0.1-0.8c0-0.1,0-0.2,0-0.3c0-0.2,0.2-0.3,0.4-0.2c0.1,0,0.1,0.1,0.2,0.2
		c0.6,0.5,1.1,1.1,1.6,1.7c0.2,0.2,0.4,0.5,0.6,0.8c0,0,0,0,0.1,0c0.2-0.2,0.5-0.4,0.7-0.7c0.3-0.3,0.7-0.6,1-0.9
		c0.3-0.3,0.6-0.6,0.8-0.9c0.1-0.1,0.2-0.1,0.2-0.2c0.2-0.1,0.3-0.1,0.5,0.1c0.2,0.2,0.2,0.5,0.2,0.8c0,0.6,0,1.2,0,1.8
		C507.9,54.9,507.9,55.1,507.9,55.3z M498.6,55.2C498.6,55.2,498.6,55.3,498.6,55.2c0.3,0.4,0.6,0.8,0.9,1.1
		c0.1,0.1,0.2,0.2,0.3,0.4c0.1,0.1,0.1,0.2,0.1,0.4c0,0.1-0.1,0.1-0.2,0.2c0,0,0,0-0.1,0.1c-0.6,0.5-1.2,1-1.8,1.4
		c0,0-0.1,0.1-0.1,0.1c0.5,0.1,1,0.3,1.5,0.5c0.3,0.1,0.7,0.3,1,0.5c0.2,0.1,0.3,0.3,0.3,0.6c0,0.6,0.1,1.2,0.1,1.8
		c0,0.2,0,0.3,0.1,0.5c0.2-0.1,0.4-0.2,0.6-0.3c0.6-0.5,1.4-0.9,2-1.4c0,0,0,0,0.1,0c0.2-0.1,0.4-0.1,0.5,0.1c0,0.1,0.1,0.1,0.1,0.2
		c0.3,0.4,0.6,0.9,1,1.3c0,0.1,0.1,0.1,0.2,0.2c0.2-0.6,0.4-1.2,0.6-1.8c0.1-0.4,0.2-0.8,0.3-1.1c0-0.1,0.1-0.3,0.2-0.4
		c0.1-0.1,0.2-0.2,0.3-0.2c0.1,0,0.2,0,0.3,0c0.7,0.1,1.3,0.3,2,0.4c0.4,0.1,0.7,0.1,1.1,0.2c0.1,0,0.1,0,0.2,0c0,0,0-0.1,0-0.1
		c-0.2-0.3-0.5-0.6-0.7-0.9c-0.3-0.4-0.6-0.7-0.8-1.1c-0.2-0.2-0.2-0.3,0-0.5c0,0,0,0,0,0c0.3-0.4,0.6-0.7,1-1
		c0.2-0.1,0.3-0.3,0.4-0.4c0,0,0-0.1,0.1-0.2c-0.2,0-0.4,0-0.6,0.1c-0.5,0.1-0.9,0.1-1.4,0.2c-0.1,0-0.2,0-0.3,0.1
		c-0.1,0-0.3,0-0.4-0.1c-0.1-0.1-0.1-0.2,0-0.3c0,0,0.1-0.1,0.1-0.1c-0.1-1,0-1.9-0.3-2.9c0,0-0.1,0.1-0.1,0.1
		c-0.2,0.2-0.4,0.4-0.6,0.6c-0.6,0.8-1.4,1.4-2.2,2c-0.1,0.1-0.2,0.1-0.3,0.1c-0.1,0-0.1-0.1-0.1-0.2c0-0.1,0-0.2-0.1-0.2
		c-0.6-0.5-1.1-1.1-1.7-1.7c-0.1-0.1-0.3-0.3-0.4-0.4c-0.1,0.5-0.1,1-0.2,1.5c-0.1,0.5-0.2,1-0.3,1.5c-0.1,0-0.2,0-0.2-0.1
		c-0.1-0.1-0.3-0.1-0.4-0.1c-0.1,0-0.2,0-0.2,0c-0.5-0.1-1-0.1-1.5-0.2C498.9,55.3,498.8,55.3,498.6,55.2z"></path>
	<path d="M505.2,50c0,0.1,0,0.2,0,0.3c-0.1,0.5-0.2,1-0.3,1.5c0,0.2-0.2,0.3-0.4,0.1c-0.1-0.1-0.1-0.1-0.1-0.3
		c0-0.3,0.1-0.5,0.1-0.8c0-0.3,0.1-0.5,0.2-0.8c0-0.1,0.1-0.3,0.1-0.4c0,0,0.1-0.1,0.1-0.1c0.1-0.1,0.2-0.1,0.2,0
		C505.1,49.8,505.2,49.9,505.2,50C505.2,50,505.2,50,505.2,50z"></path>
	<path d="M502.5,63.3c0,0.1,0,0.1,0,0.1c-0.1,0.2-0.2,0.5-0.3,0.7c-0.1,0.3-0.2,0.5-0.4,0.8c0,0.1-0.1,0.1-0.1,0.2
		c-0.1,0.1-0.1,0.1-0.2,0c-0.1,0-0.1-0.1-0.1-0.2c0.1-0.3,0.1-0.6,0.2-0.8c0.1-0.3,0.2-0.6,0.3-0.9c0-0.1,0.1-0.2,0.3-0.2
		c0.1,0,0.1,0,0.2,0.1C502.4,63.1,502.5,63.2,502.5,63.3z"></path>
	<path d="M510.9,52.4c0,0,0,0.1-0.1,0.1c-0.1,0.1-0.1,0.1-0.2,0.2c-0.3,0.3-0.6,0.7-0.9,1c-0.1,0.1-0.2,0.2-0.3,0.3
		c-0.1,0.1-0.3,0.1-0.5-0.1c-0.1-0.1-0.1-0.2,0-0.3c0.1-0.1,0.3-0.3,0.4-0.4c0.4-0.3,0.7-0.5,1.1-0.8c0.1,0,0.1-0.1,0.2-0.1
		C510.8,52.2,510.9,52.3,510.9,52.4z"></path>
	<path d="M497.7,52c0.1,0.1,0.2,0.1,0.3,0.2c0.4,0.4,0.9,0.7,1.3,1.1c0,0,0,0,0,0c0.2,0.1,0.2,0.2,0.1,0.3c-0.1,0.2-0.3,0.2-0.4,0.1
		c-0.1-0.1-0.2-0.2-0.4-0.3c-0.4-0.3-0.7-0.7-1-1.1C497.7,52.2,497.6,52.1,497.7,52z"></path>
	<path d="M498.8,61.1c0,0.1,0,0.2-0.1,0.2c-0.1,0.1-0.2,0.1-0.3,0.2c-0.5,0.3-1,0.6-1.6,0.9c0,0-0.1,0-0.1,0.1c0,0-0.1,0-0.1,0
		c-0.1,0,0-0.1,0-0.2c0-0.1,0.1-0.1,0.1-0.1c0.3-0.2,0.5-0.4,0.8-0.6c0.3-0.2,0.7-0.4,1-0.6c0.1,0,0.1-0.1,0.2-0.1
		C498.8,60.9,498.8,61,498.8,61.1z"></path>
	<path d="M511.8,58.3c-0.5,0-1-0.1-1.4-0.2c-0.2,0-0.3-0.2-0.2-0.3c0-0.1,0.1-0.2,0.2-0.1c0.1,0,0.3,0,0.4,0c0.5,0.1,1,0.1,1.4,0.3
		c0,0,0.1,0,0.1,0c0,0,0.1,0.1,0.1,0.1c0,0-0.1,0.1-0.1,0.1C512.2,58.3,512,58.3,511.8,58.3z"></path>
	<path d="M498,57.5c-0.1,0.2-0.3,0.2-0.5,0.2c-0.2,0-0.5,0-0.7-0.1c-0.3,0-0.6-0.1-0.8-0.2c0,0-0.1,0-0.1,0c0,0-0.1-0.1-0.1-0.1
		c0,0,0.1-0.1,0.1-0.1c0.4,0,0.8,0,1.3,0c0.2,0,0.3,0,0.5,0C497.7,57.3,497.9,57.3,498,57.5z"></path>
	<path d="M509.3,62.7c0,0-0.1,0-0.1-0.1c-0.5-0.5-0.9-0.9-1.4-1.4c0,0,0,0-0.1-0.1c-0.1-0.1,0-0.2,0.1-0.3c0.1-0.1,0.2,0,0.3,0.1
		c0.1,0.1,0.2,0.3,0.3,0.4c0.2,0.2,0.4,0.5,0.6,0.7c0.1,0.1,0.2,0.3,0.3,0.4C509.3,62.5,509.3,62.6,509.3,62.7
		C509.3,62.7,509.3,62.7,509.3,62.7z"></path>
</g>
</svg>