<svg xml:space="preserve" style="enable-background:new 0 0 308.4 104.7;" viewBox="0 0 308.4 104.7" y="0px" x="0px" xmlns:xlink="http://www.w3.org/1999/xlink" xmlns="http://www.w3.org/2000/svg" id="Layer_1" version="1.1">
<style type="text/css">
	.st0{fill:#D221FF;}
</style>
<path d="M159.8,69.3c3.5-3.2,6.3-5.7,9.6-8.7c2.8,2.5,5.4,4.9,8.1,7.2c9.6,8.2,23.1,7.7,31-0.9c7.7-8.5,7.8-21.7,0-30.2
	c-8-8.7-21.5-9.3-31-0.9c-15.6,13.7-30.9,27.6-46.4,41.4c-14.9,13.3-35.9,12.8-49.3-1c-13.1-13.7-13-35.2,0.2-48.9
	c13.2-13.7,34.4-14,49.3-0.6c2.6,2.4,5.2,4.8,8.4,7.7c-3.4,3.1-6.3,5.7-9.6,8.7c-2.9-2.6-5.3-4.8-7.8-7c-9.7-8.3-23-8-31.1,0.5
	c-8.1,8.5-8,22.1,0,30.7c8.1,8.5,21.6,8.9,31.1,0.5c15.4-13.6,30.6-27.3,45.8-41c14.9-13.4,35.9-13.1,49.3,0.6
	c13.2,13.6,13.3,35.3,0.3,48.9c-13.4,13.9-34.4,14.4-49.3,1.1C165.9,74.8,163.2,72.4,159.8,69.3z" class="st0"></path>
<g>
	<path d="M18.3,86.8V10.3h14.3v63.5H65v13H18.3z"></path>
</g>
<g>
	<path d="M241.2,86.8V10.3h28.7c5.5,0,10.4,1,14.6,2.9c4.3,1.9,7.6,4.7,10,8.3s3.6,7.9,3.6,13c0,5.2-1.1,9.5-3.4,13.1
		c-2.2,3.6-5.5,6.3-9.7,8.1c-4.3,1.9-9.4,2.8-15.5,2.8h-14.1v28.3H241.2z M255.5,46.4h14.1c4.6,0,8.1-0.9,10.6-2.8
		c2.5-1.9,3.8-4.8,3.8-8.8c0-4-1.3-7-3.9-9c-2.6-2-6.1-3.1-10.4-3.1h-14.2V46.4z"></path>
</g>
</svg>